<svg width="124" height="124" xmlns="http://www.w3.org/2000/svg" xmlns:xlink="http://www.w3.org/1999/xlink"><defs><path d="M96.35 79.57A60.1 60.1 0 0181.9 102c-7.25 7.06-16.74 12.67-28.2 16.67a8.86 8.86 0 01-2.75.49h-.1a8.78 8.78 0 01-2.84-.48c-11.48-4-20.98-9.6-28.24-16.67A59.99 59.99 0 015.35 79.6C-.48 63.8-.15 46.42.12 32.45v-.21c.06-1.16.1-2.37.11-3.7.1-6.58 5.34-12.01 11.92-12.38C25.9 15.4 36.51 10.93 45.6 2.1l.08-.07a7.66 7.66 0 0110.38 0l.08.07c9.08 8.83 19.7 13.3 33.44 14.06 6.59.37 11.82 5.8 11.92 12.37.02 1.35.05 2.56.1 3.7l.01.1c.27 14 .6 31.41-5.25 47.24z" id="a"/><path d="M36.5 0C16.3 0 0 16.3 0 36.5S16.3 73 36.5 73 73 56.7 73 36.5 56.7 0 36.5 0z" id="c"/><path d="M12.38 34.12a3 3 0 01-2.2-.86l-9.3-9.22a2.94 2.94 0 010-4.19 3 3 0 014.22 0l7.28 7.23L33.9 5.74a3 3 0 014.23 0 2.94 2.94 0 010 4.19L14.59 33.26a3 3 0 01-2.2.86z" id="e"/></defs><g fill="none" fill-rule="evenodd"><ellipse fill="#000" opacity=".3" cx="62" cy="119.16" rx="48.44" ry="4.84"/><g transform="translate(11.14)"><mask id="b" fill="#fff"><use xlink:href="#a"/></mask><use fill="#FAD130" xlink:href="#a"/><g mask="url(#b)"><g transform="translate(14.53 23.25)"><mask id="d" fill="#fff"><use xlink:href="#c"/></mask><g mask="url(#d)"><path d="M-2.43-2.43h78v78h-78z" fill="#FFF"/></g><g mask="url(#d)"><g transform="translate(17.03 17.03)"><mask id="f" fill="#fff"><use xlink:href="#e"/></mask><g mask="url(#f)"><path fill="#FF4B00" d="M0 0h39v39H0z"/></g></g></g></g></g></g></g></svg>