<svg width="200" height="300" xmlns="http://www.w3.org/2000/svg" xmlns:xlink="http://www.w3.org/1999/xlink"><defs><path d="M3 0h194a3 3 0 013 3v294a3 3 0 01-3 3H3a3 3 0 01-3-3V3a3 3 0 013-3z" id="a"/><path id="c" d="M0 0h476v316.93H0z"/><path id="e" d="M0 0h166.135v218.916H0z"/><path id="f" d="M.5.238h225.775v101.444H.5z"/><path id="h" d="M.107 0h311.259v317.365H.106z"/><path id="j" d="M.192.29h408.174v247.393H.192z"/><path id="k" d="M.605 0h289.34v63.192H.606z"/></defs><g fill="none" fill-rule="evenodd"><mask id="b" fill="#fff"><use xlink:href="#a"/></mask><use fill="#F1F3F4" xlink:href="#a"/><g mask="url(#b)"><path fill="#FFFFFE" d="M-109 299h476V-18h-476z"/><g transform="translate(-109 -18)"><mask id="d" fill="#fff"><use xlink:href="#c"/></mask><path fill="#FCEEA9" mask="url(#d)" d="M112.948-79.375h16.38L183.388.552l92.33 103.953 200.21 195.139v17.286L290.787 137.094l-75.682-79.263-49.369-62.75-52.789-74.456"/><path d="M151.935-53.922c.358-.119 3.861-3.117 3.861-3.117l28.978 40.583 75.317 95.508-77.577-90.394-30.579-42.58" fill="#F7F7F5" mask="url(#d)"/><path d="M144.52-79.375h14.753s35.575 47.718 35.734 48.193c.159.476 62.784 75.504 62.784 75.504l25.383 29.556L476.046 265.06v16.186L344.688 154.579 260.091 66.8 202.028-3.73l-57.509-75.646" fill="#FCEEA9" mask="url(#d)"/><path d="M274.13 95.228v-3.33l34.268 34.967s83.526 79.452 83.764 80.641c.238 1.19 83.764 80.879 83.764 80.879v4.044l-85.43-82.782-70.2-66.487-46.165-47.932" fill="#D4D5D1" mask="url(#d)"/></g><path d="M-2 10.162C-1.884 9.687 10.565-16 10.565-16L45 1.72 34.647 28-2 10.162m-10 20.6C-12 30.404-3 13-3 13l36 20.86S26.689 49 26.338 49C25.988 49-12 30.762-12 30.762m-11 21.679L-13.764 34 24 51.736 14.88 71-23 52.441m-6 12.249L-23.47 53 15 72.402 8.882 86-29 64.69m-10 21.843L-30.956 69 6 88.987-1.578 105-39 86.533m1 181.722l5.08 3.18 6.35-4.404h6.349L1.67 280 3 272.415l-3.99.122L-31.35 257-38 268.255m8-14.362L-21.65 237 12 252.227s-8.474 20.582-8.597 19.748c-.123-.832-1.228-3.45-1.228-3.45L-30 253.894m10-21.375c.491-.409 32.544 15.826 32.544 15.475 0-.35 9.456-16.109 9.456-16.109L-10.667 215-20 232.519m13-23.246c.586-.12 31.29 17.847 31.64 17.726.352-.12 13.36-23.755 13.36-23.755L9.406 186l-7.617.965L-7 209.273m-17-42.287c.592-.245 22.978 12.863 22.978 12.863s11.253.123 11.608 0C10.94 179.727 40.433 197 40.433 197L46 185.852-17.486 154-24 166.986m10-15.955s7.83-17.383 8.184-17.026C-5.46 134.362 58 166.51 58 166.51L47.443 183-14 151.031m10-25.266c.36.476 19.981 10.235 19.981 10.235L48 75.544 25.852 64-4 125.765m27 14.74c1.299.239 15.352 8.495 15.352 8.495L70 87.257 53.35 79 23 140.505m22 9.448c.702.238 14.744 9.047 14.744 9.047l3.98-7.5 2.34-.833 20.713-45.238-.82-4.822L89 95.666 74.723 89 45 149.953M30 58.168C30.237 57.81 37.827 41 37.827 41l60.48 31.236H104L94.275 90 30 58.168m10-21.697L105.544 70l5.684-11.414 6.772-6.42-10.884-11.414L50.762 14 40 36.471m18-25.055c.845 0 43 21.584 43 21.584L76.963 5 58 11.416M53 5c.357-.24 8.928-21 8.928-21L73-2.68 53 5m44 86.988L103.345 95 104 80l-7 11.988m8-15.037l8.356-15.803L120.569 56 182 119.633v8.14L162.886 151l-33.782-34.72-12.503-13.29L105 94.97l1.383-14.247L105 76.95m-40 85.182c.352-.12 3.878-7.134 3.878-7.134l-.587-2.734 21.27-45.536 2.938-1.545L95.2 99l12.34 6.301 10.46 9.631-26.5 34.122L81.1 172 65 162.132" fill="#F1F1EE"/><path d="M94 150.333c.859.12 11.587 6.667 11.587 6.667L126 120.848 119.134 115 94 150.333m18 10.567l17.083-32.9S174 171.71 174 172.54c0 .832-10.274 17.46-10.274 17.46L112 160.9M91.716 155L162 193.76 152.165 211l-62.968-34.36-4.558.237-2.639-2.14L91.716 155m-9.785 23l2.135 1.536.95 2.954L148 216.278 139.104 234 81.22 199.975l-5.22-.473L81.931 178m-6.007 25c.354 0 2.126 1.528 2.126 1.528v2.468L137 239.547 127.313 256l-55.524-31.495H66L75.924 203M54.88 217.6c.837.238 6.816 4.4 6.816 4.4l10.282-23.541L77 175.869 59.543 166 44 194s10.282-.772 12.794 1.605c2.51 2.378 2.768 5.746 2.22 11.374-.547 5.628-4.133 10.621-4.133 10.621" fill="#F1F1EE"/><g transform="translate(-31 198)"><mask id="g" fill="#fff"><use xlink:href="#f"/></mask><path d="M70.712 11.788s12.993 7.98 13.351 7.86c.357-.119 4.478-7.62 4.53-11.076.051-3.454.596-6.074-2.266-7.741-2.86-1.668-11.085.715-11.085.715l-4.53 10.242m-34.57 64.687c.477 0 32.186-61.696 32.186-61.696L92.17 27.404 59.15 93.983 15.4 181.167H.5l18.238-42.282 1.55-24.535 15.258-29.061.596-8.814m15.616 40.005l9.238-18.64 57.994 33.409-9.179 17.442-58.053-32.21M63.56 92.54l8.94-15.96 57.338 32.04-8.226 17.031-58.052-33.11m11.8-20.01l9.06-19.414 59.842 31.92-10.61 18.46-58.291-30.966M87.4 47.281l9.18-17.866 58.888 32.159-8.703 18.104L87.401 47.28m54.119 60.149c.358 0 63.179 34.778 63.179 34.778l9.738-15.602s-63.968-38.233-63.436-37.756c.533.476-9.48 18.58-9.48 18.58m12.919-23.94c.67-.596 8.06-16.556 8.06-16.556l63.775 34.659-7.867 13.933.357 5.362-64.324-37.398" fill="#F1F1EE" mask="url(#g)"/></g><path fill="#F1F1EE" d="M134 260.107L196.584 295 206 278.294 142.913 245 134 260.107m12-20.967c.969 0 62.896 33.86 62.896 33.86L219 257.763s-63.83-37.124-63.83-36.76c0 .362-9.17 18.138-9.17 18.138m12-24.441c.872.119 18.779 10.3 18.779 10.3L196 191.378 179.764 178 158 214.7"/><g transform="translate(56 -18)"><mask id="i" fill="#fff"><use xlink:href="#h"/></mask><path d="M127.13 246.377l38.647 22.959 8.322-14.275s-6.42-12.728-12.602-21.65c-6.182-8.922-16.168-19.033-16.168-19.033l-18.2 31.999m7.357 91.597l8.108 5.551 14.86-2.42s9.512-20.023 12.602-25.257c3.091-5.234 16.644-21.055 16.644-21.055l-9.272-32.357-42.942 75.538" fill="#F1F1EE" mask="url(#i)"/><path d="M112.952 173.694l17.595-20.38s9.986-1.587 10.383-1.27c.396.317 85.676 82.16 85.676 82.16l84.806 82.952v79.464h-98.597L190.623 275.6l18.705-6.978s1.982-3.33-1.585-2.696c-3.567.634-18.745 6.344-18.745 6.344s-7.093-20.302-14.78-34.735c-7.689-14.434-37.132-42.538-39.613-44.728l-21.653-19.113M98.107 49.89c.257.3 15.042-3.182 18.055-5.562 3.011-2.379 5.072-6.026 5.072-6.026S42.452-41.321 40.868-42.907c-1.586-1.586-2.636-7.11-.952-9.04 1.685-1.93 23.936-27.44 23.936-27.44H4.251L.107-72.391l36.91 49.032 61.09 73.248" fill="#F1F1EE" mask="url(#i)"/><path d="M46.891-51.154c.475-.318 25.045-28.233 25.045-28.233h104.778l-21.51 23.676s-1.812 2.752-.047 4.08c1.763 1.33 4.26-.158 4.26-.158.563-.333 5.156-5.506 5.595-5.992l19.47-21.606h24.41l14.425 14.116-97.01 99.131-25.046-23.633s32.179-32.832 33.843-34.418c1.664-1.586 0-4.758 0-4.758s-1.506-2.711-5.152.793L95.634 4.834S49.427-42.59 46.89-45.602c-2.536-3.014 0-5.551 0-5.551m71.192 124.364l52.688-55.707 58.254 54.958 82.388-2.141v128.117l-17.833 16.415s-2.775 5.314-1.309 9.993c1.467 4.679 12.295 14.365 19.142 22.364v17.724l-63.612-63.04s5.714-4.349 6.309-7.858c.594-3.509.891-5.77-.12-7.553-1.01-1.785-19.14-11.54-19.14-11.54s-3.15-.892-4.399.536c-1.248 1.427.951 2.974.06 3.747-.893.773-7.074-4.758-7.074-4.758s1.07-3.391 1.902-5.472c.832-2.082-.654-2.796-1.843-1.428-1.189 1.368-3.707 6.565-3.707 6.565L118.082 73.21" fill="#F1F1EE" mask="url(#i)"/></g><path d="M176-6.167C176.243-5.833 185.567 8 185.567 8l7.622-5.667-1.135-2.208L197-2.75 188.73-15 176-6.167" fill="#C4C2BB"/></g></g></svg>