<?xml version="1.0" encoding="UTF-8"?>
<svg id="Layer_1" data-name="Layer 1" xmlns="http://www.w3.org/2000/svg" viewBox="0 0 633.34 300.27">
  <defs>
    <style>
      .cls-1 {
        fill: #6e6f72;
      }
    </style>
  </defs>
  <path class="cls-1" d="m471.85,259.9H156.44v-22.71h315.41v22.71Zm103.45,0v-22.71c17.66,0,27.76-2.52,37.85-2.52l-5.05-70.65c-5.05-25.23-90.84-63.08-121.12-63.08h-2.52l-10.09-7.57c-63.08-37.85-111.02-68.13-184.2-75.7h-58.03c-45.42,0-80.74,2.52-108.5,10.09l5.05,7.57-12.62,7.57c-30.28,17.66-83.27,65.6-78.22,90.84,0,15.14-10.09,25.23-17.66,32.8v50.47c2.52,5.05,12.62,17.66,32.8,20.19l-2.52,20.19C15.14,252.33,0,224.57,0,222.05v-70.65l5.05-2.52c5.05-2.52,12.62-10.09,12.62-15.14-5.05-37.85,50.47-83.27,80.74-103.45l-7.57-12.62,10.09-2.52C133.73,5.05,174.1,0,229.62,0h58.03c78.22,7.57,131.21,40.37,194.29,78.22l5.05,2.52c37.85,2.52,131.21,40.37,141.3,80.74l5.05,90.84-10.09,2.52c-10.09,2.52-22.71,5.05-47.94,5.05Z"/>
  <path class="cls-1" d="m103.45,153.92c20.19,0,40.37,7.57,52.99,22.71,15.14,15.14,22.71,32.8,22.71,52.99v30.28h-15.14c-2.52,7.57-7.57,15.14-12.62,20.19-12.62,12.62-27.76,20.19-45.42,20.19s-35.33-7.57-45.42-20.19c-7.57-7.57-12.62-15.14-15.14-22.71-2.52,0-5.05-2.52-10.09-2.52l-7.57-2.52v-22.71c0-20.19,7.57-40.37,22.71-52.99,12.62-15.14,32.8-22.71,52.99-22.71Zm418.86,35.33c-25.23,0-45.42,20.19-45.42,45.42s20.19,45.42,45.42,45.42,45.42-20.19,45.42-45.42-20.19-45.42-45.42-45.42Zm-418.86,0c-25.23,0-45.42,20.19-45.42,45.42s20.19,45.42,45.42,45.42,45.42-20.19,45.42-45.42-20.19-45.42-45.42-45.42Zm418.86-35.33c20.19,0,40.37,7.57,52.99,22.71,15.14,15.14,22.71,32.8,22.71,52.99v27.76h-17.66c-2.52,7.57-7.57,15.14-15.14,20.19-12.62,12.62-27.76,20.19-45.42,20.19s-35.33-7.57-45.42-20.19c-5.05-5.05-10.09-12.62-12.62-20.19h-15.14v-30.28c0-20.19,7.57-40.37,22.71-52.99,12.62-12.62,32.8-20.19,52.99-20.19ZM111.02,42.9c-20.19,10.09-52.99,27.76-68.13,45.42h35.33l47.94-50.47-15.14,5.05Zm15.14,47.94c32.8-37.85,55.51-58.03,83.27-58.03h78.22c47.94,5.05,85.79,20.19,123.64,40.37l-2.52,2.52c-7.57,7.57-10.09,15.14-12.62,25.23v5.05l-269.99-15.14Zm-103.45,22.71v27.76h30.28s20.19-20.19,17.66-35.33c0,0-22.71,0-47.94,7.57Z"/>
  <circle class="cls-1" cx="103.45" cy="234.66" r="15.14"/>
  <circle class="cls-1" cx="522.31" cy="234.66" r="15.14"/>
  <path class="cls-1" d="m264.94,121.12h30.28v15.14h-30.28v-15.14Zm148.87-40.37c-5.05,5.05-10.09,12.62-10.09,20.19,0,2.52,0,5.05,2.52,7.57s5.05,2.52,7.57,2.52h22.71c5.05,0,7.57-2.52,10.09-5.05,2.52-2.52,2.52-7.57,0-10.09-5.05-7.57-12.62-15.14-22.71-17.66-2.52,0-7.57,0-10.09,2.52Z"/>
  <path class="cls-1" d="m434,123.64c-2.52,0-5.05,0-5.05-2.52l-12.62-17.66c-2.52-2.52-2.52-7.57,2.52-10.09,2.52-2.52,7.57-2.52,10.09,2.52l12.62,17.66c2.52,2.52,2.52,7.57-2.52,10.09,0,0-5.05,0-5.05,0Zm-312.88-15.14h30.28v15.14h-30.28v-15.14Zm421.38,0c27.76,47.94,35.33,60.56,70.65,60.56h5.05v-5.05c-5.05-20.19-35.33-40.37-68.13-55.51,0,0-7.57,0-7.57,0Z"/>
</svg>