<svg width="81" height="80" fill="none" xmlns="http://www.w3.org/2000/svg"><path d="M11.72 0h57.402v57.403H11.72V0z" fill="#FCD0B1"/><path d="M26.561 9.253v10.691H29.7c3.401 0 3.583-.567 3.826-3.24h.992V24.5h-.992c-.263-2.673-.425-3.2-3.827-3.2h-3.138v9.274c0 1.904.526 2.329 4.01 2.329v1.154H18.28v-1.154c2.55 0 3.442-.122 3.442-2.207V11.318c0-2.065-.911-2.207-3.442-2.207V7.957h16.34c2.207 0 2.976-.08 3.665-.222v8.058H37.19c-.567-5.608-1.68-6.56-6.682-6.56H26.56v.02zm34.017-1.296c2.207 0 2.976-.08 3.665-.222v8.058H63.17c-.568-5.608-1.681-6.56-6.682-6.56H55.11v21.341c0 2.025.77 2.329 4.009 2.329v1.154H46.242v-1.154c3.24 0 4.05-.304 4.05-2.329V9.254h-1.377c-5.001 0-6.115.95-6.682 6.56H41.16v-8.06c.688.122 1.458.224 3.665.224h15.753v-.02zM13.906 67.67c0 .526.142.648 1.114.648v.324h-3.341v-.324c.648 0 .89-.061.89-.628v-5.325c0-.567-.222-.628-.89-.628v-.324h4.576c.607 0 .83-.02 1.012-.06l.04 2.045h-.283c-.162-1.499-.526-1.62-1.903-1.62h-1.215v2.956h.992c.952 0 1.013-.162 1.073-.891h.264v2.166h-.264c-.08-.749-.121-.89-1.073-.89h-.992v2.55zm4.07.972v-.324c.648 0 .89-.061.89-.628v-5.325c0-.567-.222-.628-.89-.628v-.324h3.098v.324c-.648 0-.891.06-.891.628v5.325c0 .567.223.628.89.628v.324h-3.097zm10.144.121l-4.94-6.135v5.022c0 .587.405.668 1.093.668v.324h-2.632v-.324c.688 0 1.073-.081 1.073-.668v-5.59c-.324-.324-.547-.344-1.073-.344v-.324h2.328l3.807 4.88v-3.888c0-.587-.405-.668-1.093-.668v-.324h2.632v.324c-.689 0-1.073.08-1.073.668v6.358h-.122v.02zm3.564-.121H29.05v-.324c.689 0 1.013-.101 1.215-.689l2.37-6.297h.647l2.552 6.338c.222.567.344.627.85.627v.325h-3.037v-.325c.931 0 1.012-.08.79-.627l-.75-1.924H31.42l-.668 1.863c-.222.567.122.688.912.688v.345h.02zm-.122-3.28h1.964l-1.032-2.592-.932 2.592zm11.947 3.401l-4.94-6.135v5.022c0 .587.404.668 1.092.668v.324H37.09v-.324c.628 0 1.012-.081 1.012-.668v-5.57c-.364-.344-.627-.364-1.214-.364v-.324h2.49l3.807 4.88v-3.888c0-.587-.405-.668-1.094-.668v-.324h2.633v.324c-.689 0-1.074.08-1.074.668v6.358h-.141v.02zm7.33-7.39h.182l.1 2.166-.283.02c-.182-1.235-.83-1.883-2.045-1.883-1.336 0-2.369 1.155-2.369 2.916 0 2.268 1.418 3.544 2.916 3.544.648 0 1.235-.183 1.802-.79l.203.223c-.466.648-1.377 1.214-2.612 1.214-1.823 0-3.685-1.376-3.685-3.685 0-2.227 1.68-3.806 3.725-3.806.972 0 1.478.425 1.741.425.162-.02.264-.142.324-.344zm1.113 7.269v-.324c.648 0 .891-.061.891-.628v-5.325c0-.567-.223-.628-.89-.628v-.324h3.097v.324c-.648 0-.89.06-.89.628v5.325c0 .567.222.628.89.628v.324h-3.098zm6.034 0h-2.43v-.324c.547 0 .83-.101 1.033-.689l2.369-6.297h.648l2.551 6.338c.223.567.344.627.85.627v.325H59.97v-.325c.932 0 1.013-.08.79-.627l-.75-1.924h-2.267l-.668 1.863c-.223.567.121.688.911.688v.345zm-.101-3.28h1.964l-1.033-2.592-.931 2.592zm5.629 3.28v-.324c.648 0 .89-.061.89-.628v-5.325c0-.567-.222-.628-.89-.628v-.324h3.098v.324c-.648 0-.871.06-.871.628v5.386c0 .486.243.546.628.546h.364c1.397 0 1.843-.202 2.227-1.802l.264.04L69 68.682h-5.487v-.04zM18.24 72.549l.04 2.166h-.284c-.162-1.559-.526-1.741-1.903-1.741h-.446v5.912c0 .567.223.648 1.114.648v.324h-3.564v-.324c.891 0 1.114-.08 1.114-.648v-5.912h-.445c-1.377 0-1.762.182-1.904 1.741h-.283l.04-2.166c.182.04.405.06 1.013.06h4.495c.607 0 .83-.02 1.012-.06zm.708 7.31v-.325c.648 0 .89-.06.89-.628v-5.325c0-.567-.222-.627-.89-.627v-.325h3.098v.325c-.648 0-.891.06-.891.627v5.325c0 .567.223.628.89.628v.324h-3.097zm12.452-7.25v.324c-.648 0-.951.04-.89.608l.566 5.386c.061.546.284.607.912.607v.324H28.91v-.324c.648 0 .87-.06.83-.607l-.587-5.65-2.288 6.703h-.101l-2.207-6.703-.547 5.63c-.061.566.344.627.992.627v.324h-2.43v-.324c.648 0 .891-.101.932-.628l.546-5.365c.061-.567-.223-.608-.89-.608v-.324h2.55l1.54 4.94 1.64-4.94h2.51zm5.791 4.597h-.263c-.081-.75-.121-.891-1.073-.891h-1.093v2.632c0 .486.242.547.627.547h.608c1.397 0 1.842-.203 2.227-1.802l.263.04-.243 2.146h-5.69v-.324c.648 0 .891-.06.891-.627V73.6c0-.567-.222-.627-.89-.627v-.324h5.466l.02 1.802h-.283c-.162-1.276-.486-1.438-1.923-1.438H34.76v2.916h1.094c.952 0 1.012-.162 1.073-.891h.263v2.167zm5.75 1.154c0-.648-.425-.992-1.133-1.377l-1.154-.608c-.85-.465-1.377-.972-1.377-1.883 0-1.133.972-2.004 2.227-2.004.87 0 1.316.425 1.56.425.161 0 .242-.101.303-.304h.202l.102 2.025-.264.02c-.141-.972-.85-1.741-1.842-1.741-.75 0-1.235.446-1.235 1.073 0 .689.526.972 1.093 1.296l.992.526c.932.507 1.58 1.013 1.58 1.985 0 1.275-1.094 2.207-2.49 2.207-.973 0-1.439-.466-1.702-.466-.162 0-.243.142-.324.365h-.202l-.142-2.167.263-.04c.203 1.336 1.134 1.903 2.066 1.903.81-.02 1.478-.365 1.478-1.235z" fill="#333"/></svg>