<svg width="176" height="176" fill="none" xmlns="http://www.w3.org/2000/svg"><circle cx="88" cy="88" r="88" fill="#fff"/><path fill-rule="evenodd" clip-rule="evenodd" d="M164.617 88c0 9.59-1.762 18.77-4.98 27.231a25.473 25.473 0 00-1.421-14.117c-1.175-3.347-3.607-6.185-6.847-7.99-10.622-5.822-23.66-.359-26.645 11.171-.131.576-.256 1.145-.395 1.772-.141.638-.295 1.337-.481 2.162-1.646-11.097-7.005-16.682-16.059-17.173-5.192-.278-10.078.769-13.87 4.162-3.791 3.394-5.297 7.785-6.13 12.962-.1-.532-.182-.976-.254-1.372a79.3 79.3 0 00-.288-1.515c-.998-4.849-3.03-9.167-7.68-11.947-9.43-5.635-22.45-1.562-26.154 8.324-.83 2.231-1.27 4.583-1.693 6.837-.187 1.001-.37 1.984-.584 2.927-5.06-7.809-10.358-9.494-22.766-6.869l.578-4.98H49.84l.876-7.94H20.131l-2.268 20.697c.784.09 1.542.175 2.282.257l.009.001.003.001c1.733.193 3.362.374 4.973.591l.34.048c1.498.214 2.935.419 3.986-1.102a3 3 0 011.506-.761c4.921-1.545 8.896 1.537 8.424 6.485a5.097 5.097 0 01-.526 2.055 5.425 5.425 0 01-1.33 1.709 5.859 5.859 0 01-1.933 1.099 6.136 6.136 0 01-2.236.321c-3.213.009-5.087-1.725-5.446-4.996a39.277 39.277 0 00-.128-.972l-.012-.091-10.297 1.009c-3.924-9.212-6.095-19.35-6.095-29.996 0-12.992 3.234-25.228 8.94-35.949v2.934h6.007V79.1h-6.042v9.593h32.836v-9.617h-5.98v-24.23h5.945v-10.19H24.813C38.624 24.562 61.773 11.384 88 11.384c42.314 0 76.617 34.303 76.617 76.617zm-56.381-7.73v8.365H83.07v-9.51h4.492c0-1.165.02-2.318.041-3.463.048-2.657.095-5.266-.12-7.855-.201-2.404-3.458-3.672-6.602-3-1.417.274-2.693.99-3.618 2.03a5.75 5.75 0 00-1.478 3.693c-.087 1.829-.059 3.664-.03 5.558.015.97.03 1.956.03 2.963h4.772v9.642h-25.48v-9.52h4.378V64.668h-4.378V55.01h20.139v6.297c.35-.253.683-.526.998-.818 4.448-4.694 10.175-5.797 16.514-5.102 1.156.123 2.296.348 3.406.67 5.035 1.48 7.758 4.907 7.802 9.813v13.027h3.354a84.072 84.072 0 00-.221-2.718c-.186-2.036-.374-4.079-.234-6.097a13.2 13.2 0 012.326-6.694c1.381-2.006 3.294-3.644 5.554-4.755a29.831 29.831 0 0111.796-3.553 30.27 30.27 0 0112.292 1.476c6.226 1.963 9.527 6.33 10.333 12.61l-13.765 1.48c-.067-.381-.127-.753-.186-1.118v-.002h-.001c-.109-.677-.214-1.33-.356-1.971-.613-2.764-2.355-4.228-5.087-4.334-3.109-.123-5.368 1.324-6.068 4.088a20.895 20.895 0 00-.088 9.707c.683 3.058 2.627 4.506 5.884 4.53 3.258.025 5.123-1.406 5.946-4.44.031-.122.075-.244.131-.4l.001-.001c.038-.106.081-.228.131-.376h13.633a12.722 12.722 0 01-1.636 5.351 13.65 13.65 0 01-3.828 4.266c-2.777 1.933-6.076 3.105-9.527 3.385a34.79 34.79 0 01-15.989-1.52c-4.149-1.429-7.691-4.074-10.095-7.54zm45.795 8.627a6.132 6.132 0 01-3.232-.95 5.546 5.546 0 01-2.124-2.464 5.123 5.123 0 01-.301-3.151 5.365 5.365 0 011.622-2.778 5.989 5.989 0 013-1.469 6.224 6.224 0 013.369.334 5.767 5.767 0 012.604 2.023c.635.9.97 1.956.963 3.033a5.098 5.098 0 01-.448 2.097 5.428 5.428 0 01-1.283 1.772 5.857 5.857 0 01-1.918 1.169 6.16 6.16 0 01-2.252.384z" fill="#000"/><path d="M140.826 131.232c5.276.203 9.989-1.209 13.465-4.792-13.266 22.828-37.986 38.177-66.291 38.177-27.306 0-51.276-14.285-64.844-35.789.644.308 1.33.583 2.062.826a27.776 27.776 0 0012.784.818c7.933-1.153 12.04-4.858 13.861-12.12.067-.2.146-.396.236-.588 3.52 9.404 8.258 13.394 16.725 13.444 11.584.081 16.786-6.641 18.72-16.715 3.503 12.201 8.109 16.6 17.513 16.755 3.82.174 7.592-.857 10.709-2.927 5.052-3.484 6.917-8.554 7.977-14.368.125.621.233 1.207.337 1.767.213 1.158.407 2.21.696 3.246 2.145 7.499 7.811 11.98 16.05 12.266z" fill="#000"/><path d="M111.651 109.521a39.067 39.067 0 00-.316-3.198c-.402-2.96-1.103-7.482-5.131-7.654-4.614-.196-5.726 4.637-5.823 7.973l-.21 6.73a18.167 18.167 0 00.377 5.291c.875 3.32 5.481 6.624 8.528 3.271a7.99 7.99 0 001.603-3.173 26.882 26.882 0 00.972-9.248v.008zm-35.901 1.447a21.445 21.445 0 00-1.348-8.439c-1.585-3.925-6.13-5.544-8.94-1.21-2.303 3.59-1.918 10.271-1.55 14.269.184 2.02.578 4.089 1.882 5.725 1.305 1.635 3.73 2.617 5.692 1.742 1.751-.761 2.583-2.642 3.073-4.384a31.258 31.258 0 001.182-7.711l.01.008zm60.243 1.39a29.22 29.22 0 001.103 7.033c.736 2.576 2.68 4.391 5.727 3.803 2.285-.434 3.336-2.069 3.957-3.958 1.323-4.032 1.226-8.178.789-12.267a24.467 24.467 0 00-1.226-5.544 3.908 3.908 0 00-1.43-1.926 4.357 4.357 0 00-2.353-.813c-4.606-.352-5.586 4.399-6.129 7.654a29.543 29.543 0 00-.447 6.01l.009.008z" fill="#000"/><path fill-rule="evenodd" clip-rule="evenodd" d="M176 88c0 48.601-39.399 88-88 88S0 136.601 0 88 39.399 0 88 0s88 39.399 88 88zm-5.254 0c0 45.699-37.047 82.746-82.746 82.746-45.7 0-82.746-37.047-82.746-82.746C5.254 42.3 42.3 5.254 88 5.254S170.746 42.3 170.746 88z" fill="#000"/></svg>