<?xml version="1.0" encoding="UTF-8"?>
<svg id="Layer_1" data-name="Layer 1" xmlns="http://www.w3.org/2000/svg" viewBox="0 0 474.18 474.19">
  <path fill='#9C9C9C' d="m393.48,438.78c.59,6.67,1.38,16.66-8.43,27.04-11.96,11.96-16.86,10-21.77.98,0,0-98.73-176.04-102.56-182.41s-8.34-7.14-15.5-.79c-7.16,6.37-46.47,44.68-50.89,49.08-4.42,4.42-4.03,5.19-4.42,10.09l-8.62,71.32c-.19,3.53-1.78,7.05-4.52,9.81l-12.15,12.15c-6.18,6.16-9.91,4.4-12.85-3.25-2.95-7.65-14.91-48.97-14.91-48.97-.39-.99-2.65-6.37-4.42-8.15-4.12-4.1-7.84-8.02-14.7-2.53-12.45,9.9-24.72,15.08-28.24,11.56s1.67-15.77,11.56-28.21c5.41-6.96,1.59-10.58-2.53-14.7-1.78-1.76-7.16-4-8.15-4.4,0,0-41.37-11.96-49.02-14.89-7.65-2.93-9.41-6.67-3.23-12.83l12.15-12.15c2.74-2.74,6.18-4.21,9.81-4.5l71.38-8.62c4.9-.39,5.69.19,10.11-4.4,4.42-4.61,42.75-43.7,49.12-50.86,6.37-7.14,5.59-11.65-.79-15.47S7.35,111.18,7.35,111.18c-8.92-4.79-10.98-9.78.98-21.74,10.19-10.19,20.2-9.41,26.87-8.82s249.45,39.18,250.43,39.18c10.89-.09,15.31-5.08,23.93-12.92,0,0,68.53-66.73,92.36-87.98,23.83-21.26,50.2-24.3,63.94-10.58,13.72,13.71,10.68,40.26-10.6,64.06-21.28,23.81-88.05,92.29-88.05,92.29-7.85,8.62-12.85,13.04-12.95,24.89,0,0,38.73,242.65,39.22,249.21Z"/>
</svg>