<svg xmlns="http://www.w3.org/2000/svg" width="250" height="256.694"><path d="M15.838 47.64h-9.42V24.157H0V16.51h6.417v-5.44C6.417 4.624 9.255 0 18.65 0c1.987 0 5.107.4 5.107.4v7.1H20.48c-3.34 0-4.642 1.016-4.642 3.823v5.188h7.794l-.694 7.646h-7.1zM37.45 15.9c-.138 0-.28.005-.418.01-8.735 0-12.732 6.57-12.732 15.9 0 11.75 5.184 16.452 12.8 16.452 4.358 0 7.22-1.834 8.96-5.257v4.642h8.96V16.515h-8.96v4.788c-1.42-3.08-4.364-5.365-8.6-5.402zm2.278 7.356c3.67 0 5.87 2.56 5.87 6.912l.008 4.446c0 2.934-1.82 6.366-5.88 6.366-6.243 0-6.076-6.74-6.076-8.986 0-7.552 3.326-8.738 6.076-8.738zm18.9 8.825c0-3.783-.18-16.16 15.945-16.16 6.473 0 9.176 2.058 9.176 2.058l-2.175 6.738s-2.7-1.487-6.217-1.487c-4.505 0-7.38 2.612-7.38 7.207l.005 3.295c0 4.416 2.774 7.363 7.384 7.363 3.205 0 6.158-1.5 6.158-1.5l2.167 6.6s-2.472 2.07-9.076 2.07c-15.355 0-16-11.105-16-16.183zm77.658-16.172c8.735 0 12.795 6.57 12.795 15.9 0 11.75-5.184 16.452-12.8 16.452-4.358 0-7.578-1.834-9.318-5.257v4.642l-8.848-.004V.946l9.394-.82V20.88c1.356-3.63 5.81-4.97 8.775-4.97zm-2.634 7.348c-3.67 0-6.144 2.56-6.144 6.912l-.01 4.446c-.005 2.934 1.714 6.366 6.15 6.366 6.243 0 6.076-6.74 6.076-8.986 0-7.552-3.326-8.738-6.076-8.738zm-33.6-7.322c-9.908 0-15.138 5.402-15.138 15v1.784c0 12.46 7.345 15.667 16.103 15.667 8.512 0 12.365-2.38 12.365-2.38l-1.758-6.34s-4.532 1.928-9.48 1.928c-5.13 0-7.336-1.308-7.902-6.238h19.89V30.27c0-10.413-5.87-14.336-14.08-14.336zm.24 6.35c3.43 0 5.652 2.103 5.53 6.98H94.268c.2-5.133 2.597-6.98 6.033-6.98zm67.524-6.39c-10.174 0-15.53 5.734-15.53 16.008 0 14.1 9.233 16.367 15.55 16.367 9.244 0 15.394-4.977 15.394-16.24 0-11.722-6.915-16.136-15.41-16.136zm-.128 7.4c4.474 0 6.247 3.348 6.247 7.16v3.277c0 4.617-2.48 7.288-6.264 7.288-3.538 0-6.025-2.498-6.025-7.288v-3.277c0-5.108 2.96-7.16 6.042-7.16zm34.25-7.4c-10.174 0-15.53 5.734-15.53 16.008 0 14.1 9.233 16.367 15.55 16.367 9.244 0 15.394-4.977 15.394-16.24 0-11.722-6.915-16.136-15.41-16.136zm-.128 7.4c4.474 0 6.246 3.348 6.246 7.16v3.277c0 4.617-2.48 7.288-6.263 7.288-3.538 0-6.025-2.498-6.025-7.288v-3.277c0-5.108 2.96-7.16 6.042-7.16zm19.09 24.36V.947l9.42-.82v31.298l9.347-14.913h9.95l-9.75 15.446L250 47.64h-9.978l-9.694-15.23v15.23z" fill="#1877f2"/><path d="M106.986 156.332c0 11.84-9.272 20.564-20.63 20.564s-20.63-8.715-20.63-20.564c0-11.923 9.272-20.564 20.63-20.564s20.63 8.64 20.63 20.564zm-9.03 0c0-7.4-5.378-12.46-11.6-12.46s-11.6 5.062-11.6 12.46c0 7.325 5.378 12.46 11.6 12.46s11.6-5.146 11.6-12.46z" fill="#ea4335"/><path d="M151.49 156.332c0 11.84-9.272 20.564-20.63 20.564s-20.63-8.715-20.63-20.564c0-11.914 9.272-20.564 20.63-20.564s20.63 8.64 20.63 20.564zm-9.03 0c0-7.4-5.378-12.46-11.6-12.46s-11.6 5.062-11.6 12.46c0 7.325 5.378 12.46 11.6 12.46s11.6-5.146 11.6-12.46z" fill="#fbbc05"/><path d="M194.14 137v36.92c0 15.187-8.956 21.4-19.545 21.4-9.967 0-15.966-6.676-18.228-12.118l7.862-3.273c1.39 3.338 4.82 7.297 10.356 7.297 6.768 0 10.978-4.172 10.978-12.053v-2.967h-.315c-2.02 2.503-5.915 4.673-10.83 4.673-10.29 0-19.702-8.956-19.702-20.5 0-11.608 9.42-20.64 19.702-20.64 4.914 0 8.808 2.18 10.83 4.6h.315V137zm-7.937 19.396c0-7.232-4.82-12.535-10.978-12.535-6.23 0-11.45 5.285-11.45 12.535 0 7.167 5.22 12.387 11.45 12.387 6.147 0 10.978-5.22 10.978-12.387z" fill="#4285f4"/><path d="M208.278 115.37v60.266h-8.808V115.37z" fill="#34a853"/><path d="M242.602 163.1l7.01 4.673c-2.262 3.338-7.714 9.114-17.134 9.114-11.682 0-20.398-9.03-20.398-20.564 0-12.24 8.808-20.564 19.396-20.564 10.662 0 15.892 8.493 17.598 13.073l.927 2.336-27.5 11.386c2.105 4.126 5.378 6.23 9.967 6.23 4.6 0 7.788-2.262 10.125-5.693zm-21.575-7.4l18.376-7.63c-1.02-2.568-4.052-4.358-7.63-4.358-4.59 0-10.978 4.052-10.755 11.988z" fill="#ea4335"/><path d="M32.396 150.973v-8.715h29.39c.278 1.52.436 3.32.436 5.266 0 6.546-1.79 14.65-7.556 20.398-5.61 5.84-12.776 8.956-22.27 8.956C14.798 176.887 0 162.562 0 144.946s14.798-31.922 32.395-31.922c9.735 0 16.67 3.82 21.88 8.808l-6.156 6.156c-3.736-3.505-8.808-6.23-15.734-6.23-12.85 0-22.9 10.356-22.9 23.207s10.05 23.207 22.9 23.207c8.344 0 13.073-3.338 16.133-6.397 2.466-2.466 4.08-5.99 4.73-10.8z" fill="#4285f4"/><path d="M65.71 217.07H91v4.708h-9.958v26.542h-5.458v-26.542h-9.917zm24.208 8.625h4.667v4.375h.083c.167-.625.458-1.208.875-1.792s.917-1.125 1.542-1.583c.583-.5 1.25-.875 2-1.167a5.812 5.812 0 012.208-.458l1.208.042c.208.042.458.083.667.083v4.792c-.333-.083-.708-.125-1.083-.167l-1.083-.083c-.818-.003-1.628.167-2.375.5s-1.375.833-1.958 1.458a7.9 7.9 0 00-1.333 2.417c-.333.958-.5 2.083-.5 3.333v10.75h-5zm36.167 22.625h-4.917v-3.167h-.083c-.625 1.167-1.542 2.042-2.75 2.75s-2.458 1.042-3.708 1.042c-2.958 0-5.125-.708-6.458-2.208-1.333-1.458-2-3.708-2-6.667v-14.375h5v13.875c0 2 .375 3.417 1.167 4.208.75.833 1.833 1.25 3.208 1.25 1.042 0 1.917-.167 2.625-.5s1.292-.75 1.708-1.292c.458-.542.75-1.208.958-1.958s.292-1.583.292-2.458v-13.125h5v22.625zm8.5-7.25c.167 1.458.708 2.458 1.667 3.083.958.583 2.125.875 3.458.875.458 0 1-.042 1.583-.125s1.167-.208 1.667-.417c.542-.208.958-.5 1.292-.917s.5-.917.458-1.542-.25-1.167-.708-1.583-1-.708-1.667-1c-.667-.25-1.458-.458-2.333-.625l-2.667-.583-2.708-.75c-.875-.292-1.625-.667-2.333-1.208-.667-.5-1.25-1.125-1.625-1.917-.417-.792-.625-1.708-.625-2.875 0-1.25.292-2.25.917-3.083.583-.833 1.375-1.5 2.292-2a10.4 10.4 0 013.083-1.083 17.681 17.681 0 013.208-.292c1.167 0 2.292.125 3.333.375s2.042.625 2.875 1.208c.875.542 1.583 1.292 2.125 2.167.583.875.917 1.958 1.083 3.208h-5.208c-.25-1.208-.792-2-1.625-2.417-.875-.417-1.833-.625-2.958-.625-.333 0-.792.042-1.25.083-.5.083-.917.167-1.375.333a3.26 3.26 0 00-1.083.708c-.292.292-.458.708-.458 1.208 0 .625.208 1.083.625 1.458s.958.667 1.667.958c.667.25 1.458.458 2.333.625l2.708.583 2.667.75c.875.292 1.667.667 2.333 1.208.667.5 1.25 1.125 1.667 1.875s.625 1.708.625 2.792c0 1.333-.292 2.458-.917 3.417-.625.917-1.417 1.708-2.375 2.292s-2.083 1-3.25 1.292c-1.208.25-2.375.417-3.542.417-1.417 0-2.75-.167-3.958-.5s-2.292-.833-3.167-1.458c-.875-.667-1.583-1.458-2.083-2.458-.5-.958-.792-2.125-.833-3.5h5.042v.042zm16.458-15.375h3.792v-6.833h5v6.792h4.5v3.708h-4.5v12.083c0 .542.042.958.083 1.375a2.89 2.89 0 00.292.958 1.63 1.63 0 00.708.583c.333.125.75.208 1.333.208l1.042-.042 1.042-.167v3.875a21.48 21.48 0 01-1.625.167c-.542.083-1.042.083-1.625.083-1.333 0-2.375-.125-3.167-.375s-1.417-.625-1.875-1.083c-.458-.5-.75-1.083-.917-1.792s-.25-1.583-.292-2.5v-13.333h-3.792V225.6zm16.792 0h4.708v3.083h.083c.708-1.333 1.667-2.25 2.917-2.833s2.583-.875 4.083-.875c1.792 0 3.333.292 4.667.958 1.333.625 2.417 1.458 3.292 2.583.875 1.083 1.542 2.375 1.958 3.833s.667 3.042.667 4.667c0 1.542-.208 3-.583 4.417-.417 1.417-1 2.708-1.792 3.792s-1.792 1.958-3.042 2.625-2.667 1-4.333 1c-.708 0-1.458-.083-2.167-.208a9.22 9.22 0 01-2.083-.625 7.473 7.473 0 01-1.833-1.125 6.356 6.356 0 01-1.417-1.583h-.083v11.292h-5v-31zm17.458 11.333c0-1-.125-2-.417-2.958-.25-.958-.667-1.792-1.208-2.542s-1.208-1.333-1.958-1.792c-.792-.458-1.708-.667-2.708-.667-2.083 0-3.667.708-4.75 2.167-1.042 1.458-1.583 3.417-1.583 5.833 0 1.167.125 2.208.417 3.167s.667 1.792 1.25 2.5c.542.708 1.208 1.25 2 1.667s1.667.625 2.708.625c1.167 0 2.083-.25 2.875-.708s1.417-1.083 1.958-1.792c.5-.75.875-1.583 1.083-2.542.208-1 .333-1.958.333-2.958zm8.792-19.958h5v4.708h-5zm0 8.625h5v22.625h-5zm9.458-8.625h5v31.25h-5zm20.25 31.875c-1.792 0-3.417-.292-4.833-.917s-2.583-1.417-3.583-2.458c-.958-1.042-1.708-2.333-2.208-3.792a14.822 14.822 0 01-.792-4.792c0-1.708.25-3.292.792-4.75a11.08 11.08 0 012.208-3.792c.958-1.042 2.167-1.875 3.583-2.458s3.042-.917 4.833-.917 3.417.292 4.833.917a10.37 10.37 0 013.583 2.458c.958 1.042 1.708 2.333 2.208 3.792a14.56 14.56 0 01.792 4.75c0 1.75-.25 3.333-.792 4.792s-1.25 2.708-2.208 3.792c-.958 1.042-2.167 1.875-3.583 2.458s-3 .917-4.833.917zm0-3.958c1.083 0 2.083-.25 2.875-.708.833-.458 1.458-1.083 2-1.833s.917-1.625 1.167-2.542a11.43 11.43 0 00.375-2.917 11.35 11.35 0 00-.375-2.875c-.25-.958-.625-1.792-1.167-2.542a6.33 6.33 0 00-2-1.792c-.833-.458-1.792-.708-2.875-.708s-2.083.25-2.875.708c-.833.458-1.458 1.083-2 1.792-.542.75-.917 1.583-1.167 2.542a11.35 11.35 0 00-.375 2.875 11.43 11.43 0 00.375 2.917c.25.958.625 1.792 1.167 2.542s1.208 1.375 2 1.833c.833.5 1.792.708 2.875.708zm12.917-19.292h3.792v-6.833h5v6.792h4.5v3.708h-4.5v12.083c0 .542.042.958.083 1.375a2.89 2.89 0 00.292.958 1.63 1.63 0 00.708.583c.333.125.75.208 1.333.208l1.042-.042 1.042-.167v3.875c-.542.083-1.083.125-1.625.167-.542.083-1.042.083-1.625.083-1.333 0-2.375-.125-3.167-.375s-1.417-.625-1.875-1.083c-.458-.5-.75-1.083-.917-1.792s-.25-1.583-.292-2.5v-13.333h-3.792V225.6z"/><path d="M59.876 217.07H37l-7.042-21.75-7.083 21.75L0 217.028l18.5 13.458-7.083 21.75 18.5-13.458 18.5 13.458-7.042-21.75z" fill="#00b67a"/><path d="M42.96 235.402l-1.583-4.917-11.417 8.292z" fill="#005128"/><path d="M128.073 48.387H7.6c-4.135 0-7.6 3.464-7.6 7.6v30.5a7.61 7.61 0 007.599 7.599h5.81v17.1c0 1.565 1.788 2.347 2.906 1.453l19.446-18.552h92.31a7.61 7.61 0 007.599-7.599v-30.5a7.61 7.61 0 00-7.599-7.599z" fill="#8d288c"/><path d="M15.87 61.015c.56 0 .894.224.894.782l.224 3.017c.447-1.006 1.118-1.9 2.235-2.682 1.006-.782 2.347-1.23 3.8-1.23.224 0 .447 0 .56.112s.224.335.224.56v3.576c0 .447-.224.67-.67.67h-1.23c-1.34 0-2.57.56-3.464 1.676s-1.34 2.46-1.34 3.91v8.717c0 .56-.335.894-.894.894h-3.24c-.56 0-.894-.335-.894-.894V61.91c0-.56.335-.894.894-.894zm26.15 15.422c.56-.224.894-.112 1.118.56l.67 1.788c.112.447-.112.894-.56 1.118-2.012 1.006-4.135 1.453-6.594 1.453-3.353 0-5.923-.894-7.823-2.682s-2.794-4.36-2.794-7.6.894-5.81 2.57-7.71c1.676-1.788 4.023-2.682 7.04-2.682 2.906 0 5.14.894 6.705 2.57s2.347 4.023 2.347 6.93v1.676c0 .56-.335.894-.894.894H30.956c.224 1.453.782 2.682 1.9 3.576s2.46 1.34 4.247 1.34c1.676 0 3.353-.447 4.917-1.23zM30.845 69.62h9.388v-.224c0-1.565-.335-2.906-1.118-3.8s-1.9-1.34-3.353-1.34c-3.017 0-4.694 1.788-4.917 5.364zM54.65 80.908a1.12 1.12 0 01-1.118-.671L47.05 62.133c-.224-.67 0-1.006.67-1.006h3.353c.56 0 .894.224 1.006.782l2.794 8.605 1.565 5.476h.112l1.565-5.476 2.794-8.605c.112-.56.447-.782 1.006-.782h3.353c.335 0 .56.112.67.335a.71.71 0 010 .671l-6.482 18.105a1.12 1.12 0 01-1.118.671zm19.67-23.022c0 .56-.224.894-.782.894h-3.353c-.56 0-.782-.335-.782-.894v-2.57c0-.56.224-.894.782-.894h3.353c.56 0 .782.335.782.894zm0 22.128c0 .56-.335.894-.894.894h-3.24c-.56 0-.894-.335-.894-.894V61.91c0-.56.335-.894.894-.894h3.24c.56 0 .894.335.894.894zm20.228-3.576c.56-.224.894-.112 1.118.56l.67 1.788c.112.447-.112.894-.56 1.118-2.012 1.006-4.135 1.453-6.594 1.453-3.353 0-5.923-.894-7.823-2.682s-2.794-4.36-2.794-7.6.894-5.81 2.57-7.71c1.676-1.788 4.023-2.682 7.04-2.682 2.906 0 5.14.894 6.705 2.57s2.347 4.023 2.347 6.93v1.676c0 .56-.335.894-.894.894H83.482c.224 1.453.782 2.682 1.9 3.576s2.46 1.34 4.247 1.34c1.676 0 3.353-.447 4.917-1.23zM83.37 69.62h9.388v-.224c0-1.565-.335-2.906-1.118-3.8s-1.9-1.34-3.353-1.34c-3.017 0-4.694 1.788-4.917 5.364zm32.857-8.605c.447 0 .782.224.894.782l3.13 10.17.894 3.91h.112l.782-3.91 2.682-10.058c.112-.56.447-.782 1.006-.782h3.353c.67 0 .894.335.67 1.006l-5.364 17.993c-.112.56-.56.782-1.118.782h-3.353c-.56 0-1.006-.335-1.118-.894l-2.906-9.052-1.118-4.135h-.112l-1.118 4.135-2.794 9.052c-.224.56-.56.894-1.118.894h-3.353c-.56 0-.894-.224-1.118-.782l-5.476-17.993c-.224-.67 0-1.006.67-1.006h3.353c.56 0 .894.224 1.006.782l2.682 10.058.782 3.91h.112l1.23-4.023 3.017-10.17c.112-.56.447-.782 1.006-.782h2.682z" fill="#fff"/><path d="M143.16 63.474c1.788-1.788 4.135-2.57 7.152-2.57 2.46 0 4.36.447 5.7 1.23.56.335.67.67.447 1.118l-.894 2.012c-.224.56-.67.67-1.23.447-1.006-.447-2.235-.67-3.464-.67-1.676 0-3.017.447-3.91 1.453s-1.453 2.46-1.453 4.47.447 3.576 1.453 4.582c.894 1.006 2.235 1.565 3.91 1.565a8.287 8.287 0 003.8-.894c.56-.224.894-.112 1.118.447l.894 2.012c.224.447 0 .782-.56 1.118-1.453.894-3.353 1.34-5.588 1.34-3.017 0-5.476-.894-7.264-2.682s-2.682-4.247-2.682-7.488.894-5.81 2.57-7.488zm31.292 12.964c.56-.224.894-.112 1.118.56l.67 1.788c.112.447-.112.782-.56 1.118-1.9 1.006-4.023 1.453-6.37 1.453-3.24 0-5.81-.894-7.6-2.682s-2.794-4.247-2.794-7.488.894-5.7 2.57-7.488 4.023-2.682 6.93-2.682c2.794 0 5.03.894 6.594 2.57s2.347 3.91 2.347 6.705v1.788c0 .56-.335.894-.894.894h-12.63c.224 1.453.782 2.682 1.9 3.464 1.006.894 2.46 1.23 4.135 1.23 1.453-.112 3.13-.447 4.582-1.23zm-10.84-6.705h9.164v-.224c0-1.565-.335-2.794-1.118-3.688s-1.788-1.34-3.24-1.34c-3.017 0-4.582 1.676-4.806 5.253zm35.203 10.17c0 .56-.335.894-.894.894h-3.13c-.56 0-.894-.335-.894-.894V68.95c0-1.34-.224-2.235-.782-2.906s-1.453-1.006-2.794-1.006-2.46.447-3.24 1.23-1.118 1.9-1.118 3.24v10.393c0 .56-.335.894-.894.894h-3.13c-.56 0-.894-.335-.894-.894v-17.77c0-.56.335-.894.894-.894h2.906c.56 0 .782.224.894.782l.224 1.9c1.23-2.012 3.24-3.13 6.147-3.13 2.235 0 3.91.67 5.03 1.9s1.676 3.017 1.676 5.364zm10.505-14.528v8.94c0 1.006.224 1.788.56 2.123.335.447 1.006.56 2.012.56.224 0 .67-.112 1.565-.224.224 0 .447 0 .56.112s.224.335.224.56l.224 2.012c0 .447-.224.67-.67.894a11.65 11.65 0 01-3.129.447c-2.123 0-3.688-.447-4.694-1.453s-1.453-2.46-1.453-4.694v-9.5h-2.012c-.56 0-.894-.335-.894-.894v-2.012c0-.56.335-.894.894-.894h2.123v-4.247c0-.56.335-.782.894-.782h2.906c.56 0 .894.224.894.782v4.582h4.135c.56 0 .894.335.894.894v2.012c0 .56-.335.894-.894.894h-4.135zm12.18-4.135c.56 0 .782.224.894.782l.224 2.906a6.86 6.86 0 012.123-2.682c1.006-.782 2.235-1.23 3.688-1.23.224 0 .447 0 .56.112s.112.335.112.56v3.464c0 .447-.224.67-.67.67h-1.23c-1.34 0-2.46.56-3.353 1.676a5.832 5.832 0 00-1.34 3.8v8.494c0 .56-.335.894-.894.894h-3.13c-.56 0-.894-.335-.894-.894V62.133c0-.56.335-.894.894-.894zm25.592 15.2c.56-.224.894-.112 1.118.56l.67 1.788c.112.447-.112.782-.56 1.118-1.9 1.006-4.023 1.453-6.37 1.453-3.24 0-5.81-.894-7.6-2.682s-2.794-4.247-2.794-7.488.894-5.7 2.57-7.488 4.023-2.682 6.93-2.682c2.794 0 5.03.894 6.594 2.57S250 67.497 250 70.29v1.788c0 .56-.335.894-.894.894h-12.63c.224 1.453.782 2.682 1.9 3.464 1.006.894 2.46 1.23 4.135 1.23s3.017-.447 4.582-1.23zm-10.952-6.705h9.164v-.224c0-1.565-.335-2.794-1.118-3.688s-1.788-1.34-3.24-1.34c-2.906 0-4.582 1.676-4.806 5.253z" fill="#313283"/></svg>