<svg xmlns="http://www.w3.org/2000/svg" width="300" height="2400"><svg width="300" height="300" viewBox="0 0 452 452"><path d="M225.92 354.7c-8.1 0-16.2-3.09-22.37-9.26L9.27 151.16a31.64 31.64 0 1144.75-44.75l171.9 171.91 171.9-171.9a31.64 31.64 0 0144.75 44.74L248.3 345.45a31.55 31.55 0 01-22.37 9.26z" fill="#00a1ff"/></svg><svg width="300" height="300" viewBox="0 0 452 452" y="300"><path d="M225.92 354.7c-8.1 0-16.2-3.09-22.37-9.26L9.27 151.16a31.64 31.64 0 1144.75-44.75l171.9 171.91 171.9-171.9a31.64 31.64 0 0144.75 44.74L248.3 345.45a31.55 31.55 0 01-22.37 9.26z" fill="#0A578C"/></svg><svg width="300" height="300" viewBox="0 0 452 452" y="600"><path d="M225.92 354.7c-8.1 0-16.2-3.09-22.37-9.26L9.27 151.16a31.64 31.64 0 1144.75-44.75l171.9 171.91 171.9-171.9a31.64 31.64 0 0144.75 44.74L248.3 345.45a31.55 31.55 0 01-22.37 9.26z" fill="#fff"/></svg><svg width="300" height="300" viewBox="0 0 452 452" y="900"><path d="M225.92 354.7c-8.1 0-16.2-3.09-22.37-9.26L9.27 151.16a31.64 31.64 0 1144.75-44.75l171.9 171.91 171.9-171.9a31.64 31.64 0 0144.75 44.74L248.3 345.45a31.55 31.55 0 01-22.37 9.26z" fill="#D8D8D8"/></svg><svg width="300" height="300" viewBox="0 0 452 452" y="1200"><path d="M225.92 354.7c-8.1 0-16.2-3.09-22.37-9.26L9.27 151.16a31.64 31.64 0 1144.75-44.75l171.9 171.91 171.9-171.9a31.64 31.64 0 0144.75 44.74L248.3 345.45a31.55 31.55 0 01-22.37 9.26z" fill="#ff4b00"/></svg><svg width="300" height="300" viewBox="0 0 452 452" y="1500"><path d="M225.92 354.7c-8.1 0-16.2-3.09-22.37-9.26L9.27 151.16a31.64 31.64 0 1144.75-44.75l171.9 171.91 171.9-171.9a31.64 31.64 0 0144.75 44.74L248.3 345.45a31.55 31.55 0 01-22.37 9.26z" fill="#9C9C9C"/></svg><svg width="300" height="300" viewBox="0 0 452 452" y="1800"><path d="M225.92 354.7c-8.1 0-16.2-3.09-22.37-9.26L9.27 151.16a31.64 31.64 0 1144.75-44.75l171.9 171.91 171.9-171.9a31.64 31.64 0 0144.75 44.74L248.3 345.45a31.55 31.55 0 01-22.37 9.26z" fill="#00A200"/></svg><svg width="300" height="300" viewBox="0 0 452 452" y="2100"><path d="M225.92 354.7c-8.1 0-16.2-3.09-22.37-9.26L9.27 151.16a31.64 31.64 0 1144.75-44.75l171.9 171.91 171.9-171.9a31.64 31.64 0 0144.75 44.74L248.3 345.45a31.55 31.55 0 01-22.37 9.26z" fill="#333"/></svg></svg>