<svg xmlns="http://www.w3.org/2000/svg" viewBox="0 0 32 416" enable-background="new 0 0 32 416">
  <path fill="#9C9C9C"
    d="M13.6 3.8c-2.6.1-5 .5-5.8.9-.4.2-.8.6-1.1 1-.1.1-.5 1.2-.9 2.3S5 10.2 5 10.3l-.1.2H3.7c-1.3 0-1.5.1-2 .5-.4.3-.7.8-.6 1.4 0 .4 0 .5.2.8.4.7.9 1 1.7 1 .3 0 .5 0 .5.1 0 0-.1.4-.3.9-.5 1.5-.5 1.2-.5 6.6v4.8l.2.4c.6 1.2 2 1.8 3.3 1.2.3-.1.5-.3.7-.5.6-.5.7-1.2.7-2.3v-.6h17.1v.7c0 .4 0 .9.1 1.1.2 1 1 1.7 2 1.9 1.1.1 2.2-.4 2.6-1.4l.2-.4v-4.8c0-5.4 0-5.1-.5-6.6l-.3-.9c0-.1.1-.1.5-.1.8 0 1.4-.4 1.8-1 .1-.3.2-.4.2-.8 0-.5-.2-1-.6-1.4-.5-.4-.7-.5-2-.5h-1.1l-.8-2.2c-.3-.8-.6-1.7-1-2.5-.2-.4-.8-.9-1.1-1.1-1.6-.8-6.5-1.2-11.1-1zm10.5 5.7c.5 1.5.9 2.8.9 2.8H7.2l.9-2.8.9-2.7h14.1l1 2.7zM7.7 16.2c.9.4 1.3 1.5.9 2.4-.2.4-.5.7-.9.9-.4.2-1 .2-1.4.1-.5-.2-.8-.6-1.1-1.1-.3-1 .1-2 1.1-2.4.4-.1 1-.1 1.4.1zm18.2-.1c1 .3 1.5 1.4 1.2 2.4-.1.4-.7 1-1.1 1.1s-1.1.1-1.5-.1c-.6-.3-.9-.8-1-1.4-.1-1 .6-1.9 1.6-2 .3-.1.5-.1.8 0z" />
  <path fill="#00A1FF"
    d="M13.6 35.8c-2.6.1-5 .5-5.8.9-.4.3-.8.6-1.1 1-.1.2-.5 1.2-.9 2.3S5 42.2 5 42.3l-.1.2H3.7c-1.3 0-1.5 0-2 .5-.4.3-.7.8-.6 1.4 0 .4 0 .5.2.8.4.7.9 1 1.7 1 .3 0 .5 0 .5.1 0 0-.1.4-.3.9-.5 1.5-.5 1.2-.5 6.6v4.8l.2.4c.6 1.2 2 1.8 3.3 1.2.3-.1.5-.3.7-.5.6-.5.7-1.2.7-2.3v-.7h17.1v.7c0 .4 0 .9.1 1.1.2 1 1 1.7 2 1.9 1.1.1 2.2-.4 2.6-1.4l.2-.3v-4.8c0-5.4 0-5.1-.5-6.6l-.3-.9s.1-.1.5-.1c.8 0 1.4-.3 1.8-1 .1-.3.2-.4.2-.8 0-.5-.2-1-.6-1.4-.5-.4-.7-.5-2-.5h-1.1l-.8-2.2c-.3-.8-.6-1.7-1-2.5-.2-.4-.8-.9-1.1-1.1-1.6-.8-6.5-1.2-11.1-1zm10.5 5.7c.5 1.5.9 2.8.9 2.8H7.2l.9-2.8.9-2.7h14.1l1 2.7zM7.7 48.2c.9.4 1.3 1.5.9 2.4-.2.4-.5.7-.9.9-.4.2-1 .2-1.4.1-.5-.2-.8-.6-1.1-1.1-.3-1 .1-2 1.1-2.4.4-.1 1-.1 1.4.1zm18.2-.1c1 .3 1.5 1.4 1.2 2.4-.1.4-.7 1-1.1 1.1-.4.2-1.1.1-1.5-.1-.6-.3-.9-.8-1-1.4-.1-1 .6-1.9 1.6-2 .3-.1.5-.1.8 0z" />
  <path fill="#9C9C9C"
    d="M16.2 65.4H16c-6.2.1-11.1 5.2-11.1 11.4 0 8.3 9.8 16.3 11.2 17.4 1.4-1.1 11.2-9 11.2-17.4 0-6.2-4.9-11.3-11.1-11.4zm0 16.2a5.8 5.8 0 010-11.6 5.8 5.8 0 010 11.6z" />
  <path fill="#00A1FF"
    d="M16.2 97.4H16c-6.2.1-11.1 5.1-11.1 11.3 0 8.3 9.8 16.3 11.2 17.4 1.4-1.1 11.2-9 11.2-17.4 0-6.1-4.9-11.2-11.1-11.3zm0 16.2a5.8 5.8 0 010-11.6 5.8 5.8 0 010 11.6z" />
  <path fill="#FFF" d="M16.1 143.7l-8-3.7v-2h16v2l-8 3.7zm0 2.2l8-3.8v7.8h-16v-7.8l8 3.8z" />
  <path fill="#4E4E50"
    d="M16.1 258c-7.7 0-14 6.3-14 14s6.3 14 14 14 14-6.3 14-14-6.3-14-14-14zm0 3.5c4.6 0 8.4 2.9 9.9 7H6.2c1.5-4.1 5.3-7 9.9-7zm0 12.3c-1 0-1.8-.8-1.8-1.8s.8-1.8 1.8-1.8 1.8.8 1.8 1.8-.8 1.8-1.8 1.8zM5.6 272c4.8 0 8.7 4.6 8.7 10.3-4.9-.8-8.7-5.1-8.7-10.3zm12.3 10.3c.1-5.7 4-10.3 8.7-10.3 0 5.2-3.8 9.5-8.7 10.3z" />
  <defs>
    <filter id="a" filterUnits="userSpaceOnUse" x="2.1" y="258" width="28" height="28">
      <feColorMatrix values="1 0 0 0 0 0 1 0 0 0 0 0 1 0 0 0 0 0 1 0" />
    </filter>
  </defs>
  <mask maskUnits="userSpaceOnUse" x="2.1" y="258" width="28" height="28" id="b">
    <path fill="#FFF" filter="url(#a)"
      d="M16.1 258c-7.7 0-14 6.3-14 14s6.3 14 14 14 14-6.3 14-14-6.3-14-14-14zm0 3.5c4.6 0 8.4 2.9 9.9 7H6.2c1.5-4.1 5.3-7 9.9-7zm0 12.3c-1 0-1.8-.8-1.8-1.8s.8-1.8 1.8-1.8 1.8.8 1.8 1.8-.8 1.8-1.8 1.8zM5.6 272c4.8 0 8.7 4.6 8.7 10.3-4.9-.8-8.7-5.1-8.7-10.3zm12.3 10.3c.1-5.7 4-10.3 8.7-10.3 0 5.2-3.8 9.5-8.7 10.3z" />
  </mask>
  <g mask="url(#b)">
    <path fill="#00A200" d="M2.1 258h28v28h-28v-28z" />
  </g>
  <g transform="translate(0 -2)">
    <path
      d="M18.4 211.6l-.4-5c0-.1-.1-.2-.2-.3s-.2-.1-.4-.1h-2.9c-.1 0-.3 0-.4.1s-.2.2-.2.3l-.4 4.9v.1c0 .1 0 .2.1.3s.2.1.3.1h3.8c.1 0 .2 0 .3-.1.4-.1.4-.2.4-.3zm11.7 7.2c0 .7-.2 1.1-.7 1.1H18.6c.1 0 .2 0 .3-.1.1-.1.1-.2.1-.3l-.3-3.9c0-.1-.1-.2-.2-.3s-.2-.1-.4-.1h-4.2c-.1 0-.3 0-.4.1-.1.1-.2.2-.2.3l-.3 3.9c0 .1 0 .2.1.3s.2.1.3.1H2.8c-.5 0-.7-.4-.7-1.1 0-.6.1-1.1.4-1.8l6.4-16.1c.1-.2.2-.4.4-.5s.4-.2.6-.2h5.2c-.1 0-.3 0-.4.1-.1.1-.2.2-.2.3l-.2 3c0 .1 0 .3.1.4.1.1.2.1.3.1h2.6c.1 0 .2 0 .3-.1.1-.1.1-.2.1-.4l-.2-3c0-.1-.1-.2-.2-.3s-.2-.1-.4-.1h5.2c.2 0 .4.1.6.2.2.1.3.3.4.5l6.4 16.1c.5.6.6 1.2.6 1.8z" />
    <defs>
      <filter id="c" filterUnits="userSpaceOnUse" x="2.1" y="196" width="28" height="28">
        <feColorMatrix values="1 0 0 0 0 0 1 0 0 0 0 0 1 0 0 0 0 0 1 0" />
      </filter>
    </defs>
    <mask maskUnits="userSpaceOnUse" x="2.1" y="196" width="28" height="28" id="d">
      <path fill="#FFF" filter="url(#c)"
        d="M18.4 211.6l-.4-5c0-.1-.1-.2-.2-.3s-.2-.1-.4-.1h-2.9c-.1 0-.3 0-.4.1s-.2.2-.2.3l-.4 4.9v.1c0 .1 0 .2.1.3s.2.1.3.1h3.8c.1 0 .2 0 .3-.1.4-.1.4-.2.4-.3zm11.7 7.2c0 .7-.2 1.1-.7 1.1H18.6c.1 0 .2 0 .3-.1.1-.1.1-.2.1-.3l-.3-3.9c0-.1-.1-.2-.2-.3s-.2-.1-.4-.1h-4.2c-.1 0-.3 0-.4.1-.1.1-.2.2-.2.3l-.3 3.9c0 .1 0 .2.1.3s.2.1.3.1H2.8c-.5 0-.7-.4-.7-1.1 0-.6.1-1.1.4-1.8l6.4-16.1c.1-.2.2-.4.4-.5s.4-.2.6-.2h5.2c-.1 0-.3 0-.4.1-.1.1-.2.2-.2.3l-.2 3c0 .1 0 .3.1.4.1.1.2.1.3.1h2.6c.1 0 .2 0 .3-.1.1-.1.1-.2.1-.4l-.2-3c0-.1-.1-.2-.2-.3s-.2-.1-.4-.1h5.2c.2 0 .4.1.6.2.2.1.3.3.4.5l6.4 16.1c.5.6.6 1.2.6 1.8z" />
    </mask>
    <g mask="url(#d)">
      <path d="M2.1 196h28v28h-28v-28z" />
    </g>
  </g>
  <path
    d="M27.6 165.7l-2.4-2.4c-.3-.3-.6-.3-.8 0-.3.3-.3.6 0 .8l1.9 1.9-1.9 1.9c-.1.1-.2.3-.2.4v1.8c0 1.3 1.1 2.4 2.4 2.4v9.9c0 .4-.3.6-.6.6-.4 0-.6-.3-.6-.6v-1.1c0-1-.8-1.8-1.8-1.8h-.5v-15.1c0-1.3-1.1-2.4-2.4-2.4H9.1c-1.2 0-2.3 1.1-2.3 2.4v21c-1.3 0-2.4 1.1-2.4 2.4v1.8c0 .3.3.5.6.5h19.9c.3 0 .6-.3.6-.6v-1.8c0-1.3-1-2.4-2.4-2.4v-4.6h.5c.4 0 .6.3.6.6v1.1c0 1 .8 1.8 1.8 1.8s1.8-.8 1.8-1.8v-16.3c0-.2-.1-.3-.2-.4zm-6.8 6.2c0 .4-.3.6-.6.6H9.7c-.3 0-.6-.3-.6-.6v-7c0-.3.3-.5.6-.5h10.5c.4 0 .6.3.6.6v6.9zm-4.6 53.8H16c-6.2.1-11.1 5.1-11.1 11.3 0 8.3 9.8 16.3 11.2 17.4 1.4-1.1 11.2-9 11.2-17.4 0-6.2-4.9-11.2-11.1-11.3zm0 16.1a5.8 5.8 0 110-11.6 5.8 5.8 0 010 11.6z" />
  <g transform="translate(-.33)" opacity=".5">
    <defs>
      <filter id="e" filterUnits="userSpaceOnUse" x="2.4" y="290" width="28" height="28">
        <feColorMatrix values="1 0 0 0 0 0 1 0 0 0 0 0 1 0 0 0 0 0 1 0" />
      </filter>
    </defs>
    <mask maskUnits="userSpaceOnUse" x="2.4" y="290" width="28" height="28" id="f">
      <path fill="#FFF" d="M11.3 290l-2.8 16.1h5.6L11.3 318l13.3-16.8h-6.3l5.6-11.2z"
        filter="url(#e)" />
    </mask>
    <g mask="url(#f)">
      <path fill="#E2FFD0" d="M2.4 290h28v28h-28v-28z" />
    </g>
  </g>
  <path fill="#9C9C9C"
    d="M29 326.7H3.3c-.6 0-1.2-.5-1.2-1.2s.5-1.2 1.2-1.2H29c.6 0 1.2.5 1.2 1.2s-.6 1.2-1.2 1.2zm-7 7H3.3c-.6 0-1.2-.5-1.2-1.2s.5-1.2 1.2-1.2H22c.6 0 1.2.5 1.2 1.2s-.6 1.2-1.2 1.2zm-7 7H3.3c-.6 0-1.2-.5-1.2-1.2s.5-1.2 1.2-1.2H15c.6 0 1.2.5 1.2 1.2s-.6 1.2-1.2 1.2zm-7 7H3.3c-.6 0-1.2-.5-1.2-1.2s.5-1.2 1.2-1.2H8c.6 0 1.2.5 1.2 1.2s-.6 1.2-1.2 1.2z" />
  <g transform="translate(0 -1)">
    <path fill="#1D1D1B"
      d="M3 362h7.8c.4 1.5 1.8 2.6 3.4 2.6s3-1.1 3.4-2.6h11.7c.5 0 .9-.4.9-.9s-.4-.9-.9-.9H17.6c-.4-1.5-1.8-2.6-3.4-2.6s-3 1.1-3.4 2.6H3c-.5 0-.9.4-.9.9s.4.9.9.9zm11.2-2.6c1 0 1.8.8 1.8 1.8s-.8 1.8-1.8 1.8-1.8-.8-1.8-1.8.8-1.8 1.8-1.8zm15 7.9c.5 0 .9.4.9.9s-.4.9-.9.9h-1.9c-.4 1.5-1.8 2.6-3.4 2.6s-3-1.1-3.4-2.6H3c-.5 0-.9-.4-.9-.9s.4-.9.9-.9h17.6c.4-1.5 1.8-2.6 3.4-2.6s3 1.1 3.4 2.6h1.8zm-5.2 2.6c1 0 1.8-.8 1.8-1.8s-.8-1.8-1.8-1.8-1.8.8-1.8 1.8.8 1.8 1.8 1.8zm5.2 4.4c.5 0 .9.4.9.9s-.4.9-.9.9h-17c-.4 1.5-1.8 2.6-3.4 2.6-1.6 0-3-1.1-3.4-2.6H3c-.5 0-.9-.4-.9-.9s.4-.9.9-.9h2.5c.4-1.5 1.8-2.6 3.4-2.6 1.6 0 3 1.1 3.4 2.6h16.9zm-20.3 2.6c1 0 1.8-.8 1.8-1.8s-.8-1.8-1.8-1.8-1.8.8-1.8 1.8.8 1.8 1.8 1.8z" />
    <defs>
      <filter id="g" filterUnits="userSpaceOnUse" x="2.1" y="355" width="28" height="28">
        <feColorMatrix values="1 0 0 0 0 0 1 0 0 0 0 0 1 0 0 0 0 0 1 0" />
      </filter>
    </defs>
    <mask maskUnits="userSpaceOnUse" x="2.1" y="355" width="28" height="28" id="h">
      <path fill="#FFF"
        d="M3 362h7.8c.4 1.5 1.8 2.6 3.4 2.6s3-1.1 3.4-2.6h11.7c.5 0 .9-.4.9-.9s-.4-.9-.9-.9H17.6c-.4-1.5-1.8-2.6-3.4-2.6s-3 1.1-3.4 2.6H3c-.5 0-.9.4-.9.9s.4.9.9.9zm11.2-2.6c1 0 1.8.8 1.8 1.8s-.8 1.8-1.8 1.8-1.8-.8-1.8-1.8.8-1.8 1.8-1.8zm15 7.9c.5 0 .9.4.9.9s-.4.9-.9.9h-1.9c-.4 1.5-1.8 2.6-3.4 2.6s-3-1.1-3.4-2.6H3c-.5 0-.9-.4-.9-.9s.4-.9.9-.9h17.6c.4-1.5 1.8-2.6 3.4-2.6s3 1.1 3.4 2.6h1.8zm-5.2 2.6c1 0 1.8-.8 1.8-1.8s-.8-1.8-1.8-1.8-1.8.8-1.8 1.8.8 1.8 1.8 1.8zm5.2 4.4c.5 0 .9.4.9.9s-.4.9-.9.9h-17c-.4 1.5-1.8 2.6-3.4 2.6-1.6 0-3-1.1-3.4-2.6H3c-.5 0-.9-.4-.9-.9s.4-.9.9-.9h2.5c.4-1.5 1.8-2.6 3.4-2.6 1.6 0 3 1.1 3.4 2.6h16.9zm-20.3 2.6c1 0 1.8-.8 1.8-1.8s-.8-1.8-1.8-1.8-1.8.8-1.8 1.8.8 1.8 1.8 1.8z"
        filter="url(#g)" />
    </mask>
    <g mask="url(#h)">
      <path fill="#9C9C9C" d="M2.1 355h28v28h-28z" />
    </g>
  </g>
  <g transform="translate(0 -1)">
    <path fill="#FFF"
      d="M3 394h7.8c.4 1.5 1.8 2.6 3.4 2.6s3-1.1 3.4-2.6h11.7c.5 0 .9-.4.9-.9s-.4-.9-.9-.9H17.6c-.4-1.5-1.8-2.6-3.4-2.6s-3 1.1-3.4 2.6H3c-.5 0-.9.4-.9.9s.4.9.9.9zm11.2-2.6c1 0 1.8.8 1.8 1.8s-.8 1.8-1.8 1.8-1.8-.8-1.8-1.8.8-1.8 1.8-1.8zm15 7.9c.5 0 .9.4.9.9s-.4.9-.9.9h-1.9c-.4 1.5-1.8 2.6-3.4 2.6s-3-1.1-3.4-2.6H3c-.5 0-.9-.4-.9-.9s.4-.9.9-.9h17.6c.4-1.5 1.8-2.6 3.4-2.6s3 1.1 3.4 2.6h1.8zm-5.2 2.6c1 0 1.8-.8 1.8-1.8s-.8-1.8-1.8-1.8-1.8.8-1.8 1.8.8 1.8 1.8 1.8zm5.2 4.4c.5 0 .9.4.9.9s-.4.9-.9.9h-17c-.4 1.5-1.8 2.6-3.4 2.6-1.6 0-3-1.1-3.4-2.6H3c-.5 0-.9-.4-.9-.9s.4-.9.9-.9h2.5c.4-1.5 1.8-2.6 3.4-2.6 1.6 0 3 1.1 3.4 2.6h16.9zm-20.3 2.6c1 0 1.8-.8 1.8-1.8s-.8-1.8-1.8-1.8-1.8.8-1.8 1.8.8 1.8 1.8 1.8z" />
    <defs>
      <filter id="i" filterUnits="userSpaceOnUse" x="2.1" y="387" width="28" height="28">
        <feColorMatrix values="1 0 0 0 0 0 1 0 0 0 0 0 1 0 0 0 0 0 1 0" />
      </filter>
    </defs>
    <mask maskUnits="userSpaceOnUse" x="2.1" y="387" width="28" height="28" id="j">
      <path fill="#FFF"
        d="M3 394h7.8c.4 1.5 1.8 2.6 3.4 2.6s3-1.1 3.4-2.6h11.7c.5 0 .9-.4.9-.9s-.4-.9-.9-.9H17.6c-.4-1.5-1.8-2.6-3.4-2.6s-3 1.1-3.4 2.6H3c-.5 0-.9.4-.9.9s.4.9.9.9zm11.2-2.6c1 0 1.8.8 1.8 1.8s-.8 1.8-1.8 1.8-1.8-.8-1.8-1.8.8-1.8 1.8-1.8zm15 7.9c.5 0 .9.4.9.9s-.4.9-.9.9h-1.9c-.4 1.5-1.8 2.6-3.4 2.6s-3-1.1-3.4-2.6H3c-.5 0-.9-.4-.9-.9s.4-.9.9-.9h17.6c.4-1.5 1.8-2.6 3.4-2.6s3 1.1 3.4 2.6h1.8zm-5.2 2.6c1 0 1.8-.8 1.8-1.8s-.8-1.8-1.8-1.8-1.8.8-1.8 1.8.8 1.8 1.8 1.8zm5.2 4.4c.5 0 .9.4.9.9s-.4.9-.9.9h-17c-.4 1.5-1.8 2.6-3.4 2.6-1.6 0-3-1.1-3.4-2.6H3c-.5 0-.9-.4-.9-.9s.4-.9.9-.9h2.5c.4-1.5 1.8-2.6 3.4-2.6 1.6 0 3 1.1 3.4 2.6h16.9zm-20.3 2.6c1 0 1.8-.8 1.8-1.8s-.8-1.8-1.8-1.8-1.8.8-1.8 1.8.8 1.8 1.8 1.8z"
        filter="url(#i)" />
    </mask>
    <g mask="url(#j)">
      <path fill="#FFF" d="M2.1 387h28v28h-28z" />
    </g>
  </g>
</svg>