<?xml version="1.0" encoding="UTF-8"?>
<svg id="Layer_1" data-name="Layer 1" xmlns="http://www.w3.org/2000/svg" viewBox="0 0 395.75 474.31">
  <path d="m392.79,62.25l-40.02-40.02c-4.45-4.45-10.38-4.45-13.34,0-4.45,4.45-4.45,10.38,0,13.34l32.61,32.61-32.61,32.61c-1.48,1.48-2.96,4.45-2.96,7.41v29.64c0,22.23,17.79,40.02,40.02,40.02v167.49c0,5.93-4.45,10.38-10.38,10.38s-10.38-4.45-10.38-10.38v-19.27c0-16.37-13.27-29.64-29.64-29.64h-10.38V40.02c0-22.23-17.79-40.02-40.02-40.02H78.56c-20.75,0-38.54,17.79-38.54,40.02v355.73c-22.23,0-40.02,17.79-40.02,40.02v29.64c0,4.45,4.45,8.89,10.38,8.89h336.46c5.93,0,10.38-4.45,10.38-10.38v-29.64c0-22.23-17.79-40.02-40.02-40.02v-78.56h8.89c5.93,0,10.38,4.45,10.38,10.38v19.27c0,16.3,13.34,29.64,29.64,29.64s29.64-13.34,29.64-29.64V69.66c0-2.96-1.48-5.93-2.96-7.41Zm-115.61,105.24c0,5.93-4.45,10.38-10.38,10.38H88.93c-5.93,0-10.38-4.45-10.38-10.38V48.91c0-4.45,4.45-8.89,10.38-8.89h177.87c5.93,0,10.38,4.45,10.38,10.38v117.09Z"/>
</svg>