<?xml version="1.0" encoding="UTF-8"?>
<svg id="Layer_1" data-name="Layer 1" xmlns="http://www.w3.org/2000/svg" viewBox="0 0 480.11 480.31">
  <path d="m411.39,71.92c-91.63-94.63-244.84-96.13-339.47-3-94.63,93.13-96.13,244.84-3,339.47l3,3c94.63,93.13,246.34,91.63,339.47-3,91.63-93.13,91.63-243.34,0-336.46Zm-138.19,274.88c0,18.02-13.52,31.54-31.54,31.54s-31.54-15.02-31.54-31.54v-124.67c0-18.02,13.52-31.54,31.54-31.54s31.54,13.52,31.54,31.54v124.67Zm-31.54-178.75c-18.02,0-30.04-12.02-30.04-28.54s12.02-28.54,30.04-28.54,30.04,12.02,30.04,28.54c0,15.02-12.02,28.54-30.04,28.54Z"/>
</svg>