<svg xmlns="http://www.w3.org/2000/svg" width="28" height="28" y="28"><path d="M14 7.615a6.52 6.52 0 00-6.503 6.503A6.483 6.483 0 0014 20.622a6.52 6.52 0 006.503-6.504c0-3.556-2.947-6.503-6.503-6.503zm0 10.67a4.19 4.19 0 01-4.166-4.167A4.19 4.19 0 0114 9.952a4.19 4.19 0 014.166 4.166A4.19 4.19 0 0114 18.285zm6.757-9.35a1.473 1.473 0 100-2.946 1.473 1.473 0 000 2.946zm3.81-5.283c-1.32-1.37-3.2-2.083-5.335-2.083H8.767C4.347 1.57 1.4 4.516 1.4 8.936v10.416c0 2.184.7 4.064 2.134 5.436 1.372 1.32 3.2 1.98 5.284 1.98h10.364c2.185 0 4.014-.7 5.335-1.98 1.372-1.32 2.083-3.2 2.083-5.386V8.936c0-2.134-.7-3.963-2.032-5.284zm-.204 15.75c0 1.575-.56 2.846-1.473 3.7s-2.185 1.32-3.7 1.32H8.818c-1.525 0-2.795-.457-3.7-1.32-.914-.915-1.37-2.185-1.37-3.76V8.936c0-1.524.457-2.794 1.372-3.7.863-.863 2.184-1.32 3.7-1.32h10.466c1.524 0 2.794.457 3.7 1.37.863.915 1.37 2.185 1.37 3.658V19.4z" fill="#fff"/></svg>