<svg xmlns="http://www.w3.org/2000/svg" width="160" height="36" viewBox="0 0 160 36" fill="none">
<path d="M12.055 13.6319C11.7256 13.3022 11.2645 13.3022 11.001 13.6319L8.23427 16.4011C7.9049 16.7308 7.9049 17.1923 8.23427 17.456L15.2828 24.511C15.6122 24.8407 16.0733 24.8407 16.3368 24.511L36.7578 4.07143C37.0871 3.74176 37.0871 3.28022 36.7578 3.01648L33.991 0.247253C33.6617 -0.0824176 33.2006 -0.0824176 32.9371 0.247253L27.9306 5.25824C24.9663 2.88462 21.2773 1.5 17.1931 1.5H6.25804C2.83259 1.5 0 4.33516 0 7.76374V29.6538C0 33.1484 2.83259 35.9176 6.25804 35.9176H16.9297C26.4814 35.9176 34.518 28.0714 34.3863 18.511C34.3863 16.4011 33.9252 14.3571 33.2006 12.4451C33.0688 12.0495 32.5418 11.9835 32.2124 12.2473L28.787 15.6758C28.6552 15.8077 28.5894 16.0055 28.6552 16.2033C28.8529 16.9945 28.9187 17.8516 28.9187 18.7747C28.9187 25.3022 23.4512 30.511 16.9297 30.511H6.25804C5.79692 30.511 5.40168 30.1154 5.40168 29.6538V7.76374C5.40168 7.3022 5.79692 6.90659 6.25804 6.90659H17.1931C19.7622 6.90659 22.1337 7.6978 24.0441 9.08242L15.8098 17.3901L12.055 13.6319Z" fill="#FAD130"/>
<path fill-rule="evenodd" clip-rule="evenodd" d="M64.3109 3.89879C62.392 1.75855 59.9795 1.48416 58.1154 1.48416H53.8936C52.797 1.48416 51.9746 2.30733 51.9746 3.40489V14.8744C51.9746 15.9171 52.8519 16.7951 53.8936 16.7951H57.7864C59.4861 16.7951 62.0082 16.5756 63.982 14.7646C65.4623 13.3927 66.1751 11.5268 66.1751 9.16709C66.1751 6.97197 65.572 5.21587 64.3109 3.89879ZM61.2406 6.09392C61.8985 6.80733 62.2275 7.79514 62.2275 9.11221C62.2275 10.4293 61.8437 11.4171 61.1857 12.1305C60.3633 12.9537 59.2119 13.3378 57.5671 13.3378H55.8126V4.8866H57.6219C59.2668 4.8866 60.473 5.32562 61.2406 6.09392Z" fill="white"/>
<path d="M72.1514 3.18538C72.1514 2.1427 71.2741 1.26465 70.2324 1.26465C69.1907 1.26465 68.3134 2.08782 68.3134 3.18538V15.039C68.3134 16.0817 69.1907 16.9598 70.2324 16.9598C71.2741 16.9598 72.1514 16.0817 72.1514 15.039V3.18538Z" fill="white"/>
<path d="M85.8584 12.0756C85.8584 10.4842 85.2553 9.27684 83.9943 8.39879C83.0073 7.68538 81.856 7.35611 80.7594 7.08172C80.6138 7.03315 80.4682 6.99532 80.3274 6.95873C80.15 6.91264 79.9801 6.86851 79.8273 6.80733C78.7308 6.42318 78.2921 6.09392 78.2921 5.65489C78.2921 5.43538 78.2921 4.72197 79.9918 4.72197C80.6771 4.72197 81.1721 4.91251 81.6671 5.10306C81.7661 5.14117 81.8651 5.17928 81.9656 5.21587C82.0038 5.23285 82.0416 5.24984 82.0793 5.26672C82.5279 5.46804 82.9444 5.65489 83.5008 5.65489C84.5425 5.65489 85.365 4.83172 85.365 3.84392C85.365 3.24026 85.0908 2.47197 83.7749 1.92318C82.5139 1.3744 80.8691 1.31953 80.2111 1.31953C76.5925 1.31953 74.3445 3.02075 74.3445 5.76465C74.3445 7.41099 75.0024 8.61831 76.3183 9.49636C77.1956 10.0451 78.2373 10.3744 79.1146 10.6488C79.4983 10.7586 79.8821 10.8683 80.2111 10.9781C81.2528 11.3622 81.7463 11.7464 81.7463 12.2951C81.7463 13.3378 80.7594 13.5573 79.8821 13.5573C78.9306 13.5573 78.2993 13.2368 77.6957 12.9304C77.6385 12.9013 77.5815 12.8724 77.5245 12.8439C77.0311 12.5695 76.5925 12.35 76.099 12.35C75.0573 12.35 74.2348 13.1732 74.2348 14.2159C74.2348 15.0939 74.7831 15.7525 75.8797 16.2464C76.9762 16.7403 78.5114 17.0146 79.8821 17.0146C83.446 17.0146 85.8584 15.039 85.8584 12.0756Z" fill="white"/>
<path d="M100.223 14.4903C100.278 13.3927 99.4558 12.6244 98.4141 12.6244C98.0925 12.6244 97.8298 12.7129 97.5613 12.8034C97.4636 12.8363 97.3651 12.8695 97.2627 12.8988C96.7692 13.1183 96.1661 13.3378 95.0147 13.3378C92.6571 13.3378 90.9574 11.5268 90.9574 9.11221C90.9574 6.75245 92.7668 4.8866 95.0147 4.8866C95.9799 4.8866 96.4744 5.07503 96.8907 5.23366C96.9238 5.24625 96.9563 5.25865 96.9885 5.27075C97.3175 5.43538 97.7013 5.54514 98.1399 5.54514C99.1817 5.54514 99.9493 4.77684 99.9493 3.73416C99.9493 2.91099 99.401 2.25245 98.4689 1.86831C97.4272 1.48416 96.3854 1.31953 95.0695 1.31953C90.5736 1.31953 86.9002 4.83172 86.9002 9.11221C86.9002 13.722 90.2447 16.9598 95.0147 16.9598C96.3306 16.9598 97.5916 16.7403 98.6882 16.3561C99.6203 15.972 100.223 15.2585 100.223 14.4903Z" fill="white"/>
<path fill-rule="evenodd" clip-rule="evenodd" d="M117.165 9.11221C117.165 4.55733 113.766 1.26465 109.051 1.26465C104.336 1.26465 100.936 4.55733 100.936 9.11221C100.936 13.6122 104.336 16.9049 109.051 16.9049C113.766 16.9049 117.165 13.6122 117.165 9.11221ZM113.108 9.16709C113.108 11.5268 111.408 13.2829 109.051 13.2829C106.693 13.2829 104.993 11.5268 104.993 9.16709C104.993 6.80733 106.748 4.99636 109.051 4.99636C111.354 4.99636 113.108 6.80733 113.108 9.16709Z" fill="white"/>
<path d="M131.475 3.24026C131.53 2.08782 130.653 1.26465 129.556 1.26465C128.679 1.26465 127.912 1.75855 127.637 2.52684L124.403 11.4171L121.223 2.6366C120.948 1.81343 120.236 1.31953 119.358 1.31953C118.262 1.31953 117.385 2.1427 117.385 3.24026C117.385 3.45971 117.439 3.67916 117.494 3.89861L121.771 15.1488C122.209 16.3561 123.142 16.9598 124.348 16.9598C125.554 16.9598 126.486 16.2464 126.925 15.1488L131.366 3.89879C131.475 3.6793 131.475 3.45975 131.475 3.24026Z" fill="white"/>
<path d="M136.684 4.99636H143.099C144.031 4.99636 144.799 4.22806 144.799 3.24026C144.799 2.25245 144.031 1.48416 143.099 1.48416H134.765C133.669 1.48416 132.846 2.30733 132.846 3.40489V14.8744C132.846 15.9171 133.723 16.7951 134.765 16.7951H143.099C144.031 16.7951 144.799 16.0268 144.799 15.039C144.799 14.0512 144.031 13.2829 143.099 13.2829H136.684V10.9232H142.002C142.935 10.9232 143.702 10.1549 143.702 9.16709C143.702 8.17928 142.935 7.41099 142.002 7.41099H136.684V4.99636Z" fill="white"/>
<path d="M63.5319 20.7905C62.4651 20.4345 61.3982 20.2566 60.1536 20.2566C55.7085 20.2566 51.9746 23.7269 51.9746 28.0871C51.9746 32.7142 55.264 35.9176 60.0647 35.9176C61.3982 35.9176 62.554 35.7396 63.7097 35.2947C64.6876 34.8498 65.3099 34.1379 65.3099 33.2481C65.3099 32.0913 64.4209 31.2015 63.2652 31.2015C62.9544 31.2015 62.687 31.2885 62.4327 31.3713C62.3233 31.4069 62.2164 31.4417 62.1095 31.4684C61.6649 31.7354 61.1315 31.9133 60.0647 31.9133C57.9311 31.9133 56.3308 30.3116 56.3308 27.9981C56.3308 25.7735 57.9311 24.0828 60.0647 24.0828C61.0426 24.0828 61.4871 24.2608 61.9317 24.4388C62.2873 24.6167 62.6429 24.7057 63.1763 24.7057C64.332 24.7057 65.1321 23.8159 65.1321 22.7481C65.1321 21.8582 64.5098 21.1464 63.5319 20.7905Z" fill="white"/>
<path d="M107.457 20.9276C106.205 20.3825 104.571 20.328 103.918 20.328C100.323 20.328 98.0904 22.0178 98.0904 24.7432C98.0904 26.3785 98.7439 27.5777 100.051 28.4498C100.922 28.9949 101.957 29.322 102.828 29.5945C103.21 29.7035 103.591 29.8126 103.918 29.9216C104.952 30.3031 105.442 30.6847 105.442 31.2298C105.442 32.2655 104.462 32.4835 103.591 32.4835C102.646 32.4835 102.019 32.1651 101.419 31.8608C101.362 31.8319 101.306 31.8032 101.249 31.7749C100.759 31.5023 100.323 31.2843 99.8331 31.2843C98.7983 31.2843 97.9814 32.1019 97.9814 33.1376C97.9814 34.0098 98.526 34.6639 99.6152 35.1544C100.704 35.645 102.229 35.9176 103.591 35.9176C107.131 35.9176 109.527 33.9552 109.527 31.0118C109.527 29.431 108.928 28.2318 107.675 27.3597C106.695 26.651 105.551 26.324 104.462 26.0514C104.318 26.0032 104.173 25.9656 104.033 25.9293C103.857 25.8835 103.688 25.8397 103.536 25.7789C102.447 25.3973 102.011 25.0703 102.011 24.6342C102.011 24.4162 102.011 23.7076 103.7 23.7076C104.38 23.7076 104.872 23.8968 105.364 24.0861C105.462 24.1239 105.56 24.1618 105.66 24.1981C105.698 24.215 105.736 24.2319 105.773 24.2487C106.219 24.4486 106.632 24.6342 107.185 24.6342C108.22 24.6342 109.037 23.8166 109.037 22.8354C109.037 22.2358 108.764 21.4727 107.457 20.9276Z" fill="white"/>
<path fill-rule="evenodd" clip-rule="evenodd" d="M93.9371 21.4513C93.0113 20.7426 91.7042 20.4156 90.0705 20.4156H85.1146C84.0255 20.4156 83.2086 21.2332 83.2086 22.3234V33.9338C83.2086 34.9695 84.0799 35.8416 85.1146 35.8416C86.1494 35.8416 87.0207 34.9695 87.0207 33.9338V30.6088H89.308L92.1399 34.915C92.5211 35.5146 93.0657 35.7871 93.7737 35.7871C94.8629 35.7871 95.6798 34.915 95.6798 33.8248C95.6798 33.4432 95.5709 33.1162 95.353 32.7891L93.338 29.7911C93.5559 29.6276 93.7737 29.4641 94.046 29.3006C95.1896 28.3194 95.7887 27.0112 95.7887 25.4849C95.7887 23.7951 95.1352 22.3234 93.9371 21.4513ZM87.0752 23.7951H89.8526C90.4517 23.7951 90.9418 23.9042 91.2686 24.1222C91.6498 24.3947 91.8676 24.8853 91.8676 25.4849C91.8676 26.139 91.6498 26.5751 91.2141 26.9022C90.8873 27.1202 90.4517 27.1747 89.7982 27.1747H87.0752V23.7951Z" fill="white"/>
<path fill-rule="evenodd" clip-rule="evenodd" d="M77.0152 22.1252C76.5707 20.8794 75.6817 20.1676 74.3481 20.1676C73.0146 20.1676 72.2145 20.7905 71.6811 22.1252L67.6805 33.0701C67.5916 33.3371 67.5027 33.604 67.5027 33.871C67.5027 35.0277 68.3917 35.8286 69.5474 35.8286C70.5254 35.8286 71.3255 35.2947 71.5922 34.4049L72.1256 32.8032H76.304L76.8374 34.4049C77.1041 35.2947 77.8153 35.8286 78.8822 35.8286C80.1268 35.8286 81.0158 35.0277 81.0158 33.871C81.0158 33.604 80.9269 33.1591 80.838 32.9811L77.0152 22.1252ZM73.1076 28.9269L74.3141 25.5239L75.4109 28.9269H73.1076Z" fill="white"/>
<path fill-rule="evenodd" clip-rule="evenodd" d="M157.574 2.52684C156.642 1.81343 155.326 1.48416 153.681 1.48416H148.691C147.595 1.48416 146.773 2.30733 146.773 3.40489V15.0939C146.773 16.1366 147.65 17.0146 148.691 17.0146C149.733 17.0146 150.61 16.1366 150.61 15.0939V11.7464H152.913L155.764 16.0817C156.148 16.6854 156.696 16.9598 157.409 16.9598C158.506 16.9598 159.328 16.0817 159.328 14.9842C159.328 14.6 159.219 14.2707 158.999 13.9415L156.971 10.9232C157.19 10.7586 157.409 10.5939 157.683 10.4293C158.835 9.44148 159.438 8.1244 159.438 6.58782C159.438 4.8866 158.78 3.40489 157.574 2.52684ZM150.665 4.8866H153.462C154.065 4.8866 154.558 4.99636 154.887 5.21587C155.271 5.49026 155.49 5.98416 155.49 6.58782C155.49 7.24636 155.271 7.68538 154.832 8.01465C154.503 8.23416 154.065 8.28904 153.407 8.28904H150.665V4.8866Z" fill="white"/>
<path d="M135.823 31.4427C136.69 31.4427 137.26 30.8268 137.26 30.0286V26.0371C137.26 25.2388 136.69 24.623 135.823 24.623H135.663C134.797 24.623 134.226 25.2388 134.226 26.0371V30.0286C134.226 30.8268 134.797 31.4427 135.663 31.4427H135.823Z" fill="white"/>
<path fill-rule="evenodd" clip-rule="evenodd" d="M114 22C114 20.8954 114.895 20 116 20H158C159.105 20 160 20.8954 160 22V34C160 35.1046 159.105 36 158 36H116C114.895 36 114 35.1046 114 34V22ZM126.419 24.623C127.4 24.623 127.719 25.4213 127.765 25.9002C127.856 26.7898 128.426 27.0863 129.11 27.0863C129.703 27.0863 130.41 26.6757 130.41 25.809C130.41 23.8703 128.768 22.114 126.419 22.114H126.328C124.161 22.114 122.382 23.6194 122.382 26.0143V30.0514C122.382 32.4234 124.161 33.9516 126.328 33.9516H126.419C129.179 33.9516 130.41 31.7392 130.41 30.4163C130.41 29.618 129.931 29.0022 129.065 29.0022C128.403 29.0022 127.879 29.3899 127.765 30.1882C127.696 30.6444 127.468 31.4427 126.419 31.4427H126.328C125.529 31.4427 124.982 30.8953 124.982 30.0514V26.0143C124.982 25.216 125.529 24.623 126.328 24.623H126.419ZM119.649 33.9516C120.447 33.9516 121.086 33.3586 121.086 32.5831V32.1725C121.086 31.3971 120.447 30.804 119.649 30.804C118.851 30.804 118.212 31.3971 118.212 32.1725V32.5831C118.212 33.3586 118.851 33.9516 119.649 33.9516ZM131.626 26.0143C131.626 23.6194 133.428 22.114 135.663 22.114H135.823C138.058 22.114 139.86 23.6194 139.86 26.0143V30.0514C139.86 32.4234 138.058 33.9516 135.823 33.9516H135.663C133.428 33.9516 131.626 32.4234 131.626 30.0514V26.0143ZM147.292 32.6971C147.292 33.4042 147.862 33.9516 148.592 33.9516C149.322 33.9516 149.892 33.4042 149.892 32.6971V26.0371C149.892 25.2388 150.462 24.623 151.329 24.623H151.489C152.356 24.623 152.926 25.2388 152.926 26.0371V32.6971C152.926 33.4042 153.496 33.9516 154.226 33.9516C154.956 33.9516 155.526 33.4042 155.526 32.6971V26.0143C155.526 23.6194 153.838 22.114 151.785 22.114H151.694C150.44 22.114 149.573 22.3421 148.638 23.0264C147.976 22.4334 147.11 22.114 146.152 22.114H146.06C145.376 22.114 144.646 22.2965 144.099 22.7755C143.871 22.3877 143.437 22.114 142.958 22.114C142.251 22.114 141.658 22.6614 141.658 23.3685V32.6971C141.658 33.4042 142.229 33.9516 142.958 33.9516C143.688 33.9516 144.259 33.4042 144.259 32.6971V25.923C144.304 25.1932 144.874 24.623 145.696 24.623H145.855C146.722 24.623 147.292 25.2388 147.292 26.0371V32.6971Z" fill="white"/>
</svg>