<svg xmlns="http://www.w3.org/2000/svg" width="80" height="80" fill="none" class="mr-24 app-logo rounded-8">
            <path d="M0 0h80v80H0z" fill="#0a578c"></path>
            <path d="M18.49 26.478c-.169-.169-.405-.169-.541 0l-1.419 1.42c-.169.169-.169.406 0 .541l3.615 3.618c.169.169.405.169.541 0l10.472-10.482c.169-.169.169-.406 0-.541l-1.419-1.42c-.169-.169-.405-.169-.54 0l-2.567 2.57c-1.52-1.217-3.412-1.927-5.506-1.927h-5.608c-1.757 0-3.209 1.454-3.209 3.212v11.226a3.21 3.21 0 0 0 3.209 3.212h5.473c4.898 0 9.02-4.024 8.952-8.926 0-1.082-.236-2.13-.608-3.111-.068-.203-.338-.237-.507-.101l-1.757 1.758c-.068.068-.101.169-.068.271.101.406.135.845.135 1.319 0 3.347-2.804 6.019-6.148 6.019h-5.473a.45.45 0 0 1-.439-.44V23.469a.45.45 0 0 1 .439-.44h5.608c1.317 0 2.534.406 3.513 1.116l-4.223 4.26z" fill="#fad130"></path>
            <path d="M18.634 43.915c-.984-1.098-2.221-1.238-3.177-1.238h-2.165a.96.96 0 0 0-.984.985v5.882a1 1 0 0 0 .984.985h1.996c.872 0 2.165-.113 3.177-1.041.759-.704 1.125-1.66 1.125-2.871 0-1.126-.309-2.026-.956-2.702zm-1.575 1.126c.337.366.506.872.506 1.548s-.197 1.182-.534 1.548c-.422.422-1.012.619-1.856.619h-.9v-4.334h.928c.843 0 1.462.225 1.856.619zm5.595-1.492a1 1 0 0 0-.984-.985.98.98 0 0 0-.984.985v6.079a1 1 0 0 0 .984.985 1 1 0 0 0 .984-.985zm7.029 4.559c0-.816-.309-1.435-.956-1.886-.506-.366-1.097-.535-1.659-.675l-.222-.063-.256-.078c-.562-.197-.787-.366-.787-.591 0-.113 0-.478.872-.478.351 0 .605.098.859.195l.153.058.058.026c.23.103.444.199.729.199.534 0 .956-.422.956-.929 0-.31-.141-.704-.815-.985-.647-.281-1.49-.31-1.828-.31-1.856 0-3.009.872-3.009 2.28 0 .844.337 1.463 1.012 1.914.45.281.984.45 1.434.591l.562.169c.534.197.787.394.787.675 0 .535-.506.647-.956.647-.488 0-.812-.164-1.121-.322l-.088-.044c-.253-.141-.478-.253-.731-.253a.95.95 0 0 0-.956.957c0 .45.281.788.844 1.041s1.35.394 2.053.394c1.828 0 3.065-1.013 3.065-2.533zm7.367 1.238c.028-.563-.394-.957-.928-.957-.165 0-.3.045-.437.092l-.153.049c-.253.113-.562.225-1.153.225-1.209 0-2.081-.929-2.081-2.167 0-1.21.928-2.167 2.081-2.167a2.36 2.36 0 0 1 .962.178l.05.019c.169.084.366.141.59.141a.9.9 0 0 0 .928-.929c0-.422-.281-.76-.759-.957-.534-.197-1.068-.281-1.743-.281-2.306 0-4.189 1.801-4.189 3.996 0 2.364 1.715 4.024 4.161 4.024a5.75 5.75 0 0 0 1.884-.31c.478-.197.787-.563.787-.957zm8.688-2.758c0-2.336-1.743-4.024-4.161-4.024s-4.161 1.689-4.161 4.024c0 2.308 1.743 3.996 4.161 3.996s4.161-1.689 4.161-3.996zm-2.081.028c0 1.21-.872 2.111-2.081 2.111s-2.081-.901-2.081-2.111.9-2.139 2.081-2.139 2.081.929 2.081 2.139zm9.419-3.039c.028-.591-.422-1.013-.984-1.013-.45 0-.844.253-.984.647L49.45 47.77l-1.631-4.503a.97.97 0 0 0-.956-.675c-.562 0-1.012.422-1.012.985 0 .113.028.225.056.338h0l2.193 5.769a1.32 1.32 0 0 0 1.321.929c.619 0 1.097-.366 1.321-.929l2.277-5.769c.056-.113.056-.225.056-.338zm2.671.901h3.289c.478 0 .872-.394.872-.901s-.394-.901-.872-.901h-4.273a.96.96 0 0 0-.984.985v5.882a1 1 0 0 0 .984.985h4.273c.478 0 .872-.394.872-.901s-.394-.901-.872-.901h-3.289v-1.21h2.727c.478 0 .872-.394.872-.901s-.394-.901-.872-.901h-2.727zm-37.514 8.1c-.547-.183-1.094-.274-1.732-.274-2.28 0-4.194 1.779-4.194 4.015 0 2.373 1.687 4.016 4.149 4.016.684 0 1.277-.091 1.869-.319.501-.228.821-.593.821-1.05a1.03 1.03 0 0 0-1.049-1.049c-.159 0-.297.045-.427.087l-.166.05c-.228.137-.501.228-1.049.228-1.094 0-1.915-.822-1.915-2.008 0-1.141.821-2.008 1.915-2.008.501 0 .729.091.957.183.182.091.365.137.638.137.593 0 1.003-.456 1.003-1.004 0-.456-.319-.821-.821-1.004zm22.526.07c-.642-.28-1.48-.308-1.815-.308-1.843 0-2.988.867-2.988 2.265 0 .838.335 1.453 1.005 1.901.447.279.977.447 1.424.587l.559.168c.531.195.782.391.782.671 0 .531-.503.643-.95.643-.485 0-.806-.163-1.114-.319l-.087-.044c-.251-.139-.475-.251-.726-.251a.94.94 0 0 0-.95.95c0 .447.279.783.838 1.034s1.341.391 2.039.391c1.815 0 3.044-1.006 3.044-2.516 0-.811-.307-1.426-.95-1.873-.503-.364-1.089-.531-1.648-.671l-.22-.063-.255-.077c-.559-.195-.782-.363-.782-.587 0-.112 0-.475.866-.475.349 0 .601.097.853.194l.152.057.058.026c.229.103.441.198.724.198.531 0 .95-.419.95-.923 0-.308-.14-.699-.81-.978zm-6.933.269c-.475-.364-1.145-.531-1.983-.531h-2.541c-.559 0-.977.419-.977.978v5.954a.99.99 0 0 0 .977.978.99.99 0 0 0 .977-.978v-1.705h1.173l1.452 2.208c.195.308.475.447.838.447.559 0 .977-.447.977-1.006 0-.195-.056-.363-.168-.531l-1.033-1.537.363-.251c.586-.503.894-1.174.894-1.957 0-.867-.335-1.621-.95-2.068zm-8.678.346c-.228-.639-.684-1.004-1.368-1.004s-1.094.319-1.368 1.004l-2.052 5.612c-.046.137-.091.274-.091.411 0 .593.456 1.004 1.049 1.004.501 0 .912-.274 1.049-.73l.274-.821h2.143l.274.821c.137.456.501.73 1.049.73.638 0 1.094-.411 1.094-1.004 0-.137-.046-.365-.091-.456zm-2.004 3.488l.619-1.745.562 1.745zm7.163-2.632h1.424c.307 0 .559.056.726.168.196.139.307.391.307.698 0 .335-.112.559-.335.727-.168.112-.391.139-.726.139h-1.396zm36.153-10.907c-.478-.366-1.153-.535-1.996-.535h-2.558a.96.96 0 0 0-.984.985v5.994a1 1 0 0 0 .984.985 1 1 0 0 0 .984-.985v-1.717h1.181l1.462 2.223c.197.31.478.45.844.45.562 0 .984-.45.984-1.013 0-.197-.056-.366-.169-.535l-1.041-1.548.366-.253a2.51 2.51 0 0 0 .899-1.97c0-.872-.337-1.632-.956-2.083zm-3.543 1.21h1.434c.309 0 .562.056.731.169.197.141.31.394.31.704 0 .338-.113.563-.337.732-.169.113-.394.141-.731.141h-1.406zm-18.803 8.776c0-.566.459-1.026 1.026-1.026h21.538c.567 0 1.026.459 1.026 1.026v6.154c0 .567-.459 1.026-1.026 1.026H45.141c-.566 0-1.026-.459-1.026-1.026zm6.369 1.345c.503 0 .667.41.69.655.047.456.339.608.69.608.304 0 .667-.211.667-.655 0-.994-.843-1.895-2.047-1.895h-.047c-1.111 0-2.024.772-2.024 2.001v2.07c0 1.216.912 2 2.024 2h.047c1.415 0 2.047-1.134 2.047-1.813 0-.41-.246-.725-.69-.725-.339 0-.608.198-.667.608-.035.234-.152.643-.69.643h-.047a.66.66 0 0 1-.69-.713v-2.07c0-.41.281-.714.69-.714zm-3.472 4.784c.409 0 .737-.304.737-.702v-.21c0-.398-.327-.702-.737-.702s-.737.304-.737.702v.21c0 .398.327.702.737.702zm6.142-4.07c0-1.228.924-2.001 2.07-2.001h.082c1.147 0 2.071.772 2.071 2.001v2.07c0 1.216-.924 2-2.071 2h-.082c-1.146 0-2.07-.784-2.07-2zm8.033 3.427c0 .363.293.644.667.644s.667-.281.667-.644v-3.415a.7.7 0 0 1 .737-.725h.082a.7.7 0 0 1 .737.725v3.415c0 .363.292.644.667.644s.667-.281.667-.644v-3.427c0-1.228-.865-2.001-1.918-2.001h-.047c-.644 0-1.088.117-1.568.468-.339-.304-.784-.468-1.275-.468h-.047c-.351 0-.725.094-1.006.339a.69.69 0 0 0-.585-.339c-.363 0-.667.281-.667.644v4.784c0 .363.292.644.667.644s.667-.281.667-.644v-3.474c.024-.374.316-.667.737-.667h.082a.7.7 0 0 1 .736.725zm-5.882-.643a.7.7 0 0 0 .737-.725v-2.047a.7.7 0 0 0-.737-.725h-.082a.7.7 0 0 0-.737.725v2.047a.7.7 0 0 0 .737.725z" fill="#fff" fill-rule="evenodd"></path>
        </svg>