<svg xmlns="http://www.w3.org/2000/svg" width="44" height="140" fill="none"><path d="M0 86a2 2 0 012-2h40a2 2 0 012 2v24a2 2 0 01-2 2H2a2 2 0 01-2-2V86z" fill="#fff"/><path d="M18.546 106.383l.317-2.013-.706-.016h-3.371l2.343-14.857a.191.191 0 01.19-.162h5.685c1.887 0 3.19.393 3.87 1.168.318.363.521.743.62 1.162.103.438.105.963.004 1.602l-.007.047v.41l.318.18c.244.123.462.29.646.492.273.311.449.706.524 1.175.076.481.051 1.055-.075 1.704-.145.747-.38 1.397-.698 1.929-.28.477-.657.89-1.106 1.212a4.485 4.485 0 01-1.49.672 7.43 7.43 0 01-1.862.215h-.442a1.337 1.337 0 00-1.316 1.123l-.033.182-.56 3.548-.026.13c-.006.042-.018.062-.035.076a.09.09 0 01-.058.021h-2.732z" fill="#253B80"/><path d="M28.111 93.36a9.03 9.03 0 01-.058.334c-.75 3.85-3.314 5.18-6.59 5.18h-1.668a.81.81 0 00-.8.685l-.855 5.416-.241 1.535a.427.427 0 00.42.493h2.96a.71.71 0 00.702-.6l.03-.15.556-3.534.036-.194a.712.712 0 01.703-.602h.442c2.866 0 5.11-1.163 5.766-4.53.274-1.407.132-2.582-.593-3.408a2.827 2.827 0 00-.81-.624z" fill="#179BD7"/><path d="M27.327 93.048a5.915 5.915 0 00-.729-.162 9.265 9.265 0 00-1.47-.107h-4.456a.71.71 0 00-.702.601l-.948 6.004-.027.175a.81.81 0 01.8-.686h1.668c3.276 0 5.84-1.33 6.59-5.179a7.8 7.8 0 00.058-.333 3.984 3.984 0 00-.784-.313z" fill="#222D65"/><path d="M19.97 93.38a.71.71 0 01.702-.6h4.456c.527 0 1.02.034 1.47.107.304.048.604.12.898.214.22.073.426.16.616.26.223-1.422-.002-2.391-.771-3.268-.848-.965-2.378-1.379-4.336-1.379H17.32c-.4 0-.742.291-.803.687l-2.368 15.009a.49.49 0 00.482.565h3.51l.88-5.591.948-6.004z" fill="#253B80"/><path d="M0 2a2 2 0 012-2h40a2 2 0 012 2v24a2 2 0 01-2 2H2a2 2 0 01-2-2V2z" fill="#016FD0"/><path d="M2.605 13.12H3.67l.44 1.174h4.147v-.881l.367.88h2.165l.367-.917v.918h10.275v-1.91h.184c.146 0 .183.037.183.258v1.652h5.321v-.441c.44.22 1.102.44 1.981.44h2.24l.477-1.174h1.064l.477 1.175h4.294v-1.102l.66 1.101h3.448V7.1h-3.412v.845l-.513-.845h-3.487v.845l-.44-.845h-4.733c-.808 0-1.504.11-2.057.404V7.1h-3.265v.404c-.367-.293-.844-.404-1.395-.404H10.532l-.807 1.835L8.88 7.1H5.137v.845l-.44-.845H1.504L0 10.514v3.779h2.128l.477-1.174zm24.772-4.405c.367-.404 1.027-.587 1.872-.587h1.173V9.23h-1.173c-.441 0-.699.073-.954.293-.222.22-.332.624-.332 1.175s.11.954.331 1.21c.183.184.514.258.845.258h.55l1.76-4.037h1.836l2.055 4.845V8.128h1.909l2.166 3.56v-3.56h1.247v5.138h-1.76l-2.314-3.854v3.854h-2.495l-.477-1.137h-2.57l-.476 1.137h-1.43c-.59 0-1.36-.147-1.8-.588-.404-.44-.623-1.027-.623-1.945 0-.77.11-1.468.66-2.018zm-2.532-.587h1.246v5.138h-1.246V8.128zm-5.651 0h2.826c.622 0 1.063 0 1.467.221.404.257.66.587.66 1.173 0 .809-.551 1.211-.882 1.36.259.109.477.292.59.44.183.256.218.477.218.918v1.026h-1.248v-.66c0-.293.039-.734-.183-.99-.183-.184-.476-.221-.917-.221h-1.321v1.871h-1.21V8.128zm-4.992 0h4.11v1.065H15.45v.918h2.825v1.064H15.45v1.027h2.862v1.064h-4.11V8.128zM1.357 13.266H.037l2.2-5.138h1.836l2.092 4.845V8.128h1.982l1.614 3.487 1.504-3.487h2.019v5.138h-1.248V9.229l-1.798 4.037H9.174L7.375 9.229v4.037H4.88l-.477-1.137H1.835l-.478 1.137z" fill="#fff"/><path d="M32.33 9.008l-.843 2.02h1.688l-.844-2.02zm-30.055 2.02h1.688l-.844-2.02-.844 2.02zm20.258-.808c.146-.074.219-.257.219-.478 0-.22-.073-.366-.219-.477-.147-.073-.404-.073-.624-.073h-1.505v1.137h1.505c.257 0 .44 0 .624-.11zm-11.561 7.816v.954h2.716v1.027h-2.716v1.028h3.046l1.394-1.504-1.357-1.505h-3.083zm7.927 3.634v-4.147L16.99 19.54l1.909 2.13zm8.808-3.524c-.149-.11-.367-.11-.587-.11h-1.507v1.174l1.507-.037c.22 0 .402 0 .587-.073a.642.642 0 00.255-.514.47.47 0 00-.255-.44zm-5.983-.11H20.11v1.322h1.614c.44 0 .735-.258.735-.699 0-.44-.294-.623-.735-.623z" fill="#fff"/><path d="M41.432 15.945c-.66 0-1.174.183-1.542.44v-.44h-3.34c-.55 0-1.173.146-1.503.44v-.44h-5.982v.44c-.516-.366-1.285-.44-1.69-.44h-3.963v.44c-.367-.366-1.211-.44-1.725-.44h-4.44l-1.027 1.1-.954-1.1H8.66v7.193h6.495l1.065-1.102.954 1.102h4.037V21.45h.367c.55 0 1.173 0 1.725-.258v1.947h3.301v-1.872h.185c.182 0 .22 0 .22.22v1.653h10.055c.624 0 1.286-.148 1.651-.44v.44h3.194c.66 0 1.322-.112 1.8-.33 0 0 .247-.092.291-.275v-2.04c0 .418-.1.75-.292 1.002-.315.415-.877.614-1.653.614H39.67v-1.1h2.386c.221 0 .404-.038.477-.11a.467.467 0 00.146-.331.56.56 0 00-.146-.366c-.073-.075-.22-.112-.44-.112-1.138-.036-2.569.037-2.569-1.577 0-.733.477-1.541 1.763-1.541h2.457v1.1h-2.275c-.22 0-.368 0-.477.073-.11.11-.183.222-.183.404 0 .183.11.294.256.368.148.036.294.073.477.073h.662c.696 0 1.136.146 1.429.404.028.032.05.07.076.104.176.241.292.547.292.996v-4.55h-2.568zm-19.781 4.44h-1.542v1.724h-2.385l-1.505-1.688-1.578 1.688h-4.88v-5.137h4.954l1.504 1.687 1.578-1.687h3.926c.954 0 2.057.292 2.057 1.687 0 1.431-1.066 1.726-2.13 1.726zm7.414-.22c.146.257.183.476.183.953v.991h-1.21v-.623c0-.331 0-.771-.221-1.027-.183-.183-.442-.22-.882-.22h-1.322v1.87h-1.246v-5.136h2.826c.623 0 1.1.036 1.505.255.403.222.622.552.622 1.14 0 .805-.55 1.245-.88 1.355.294.112.513.294.625.441zm5.064-2.13h-2.9v.955h2.827v1.027h-2.827v1.028h2.9v1.064h-4.112v-5.137h4.112v1.064zm3.118 4.074h-2.385v-1.1h2.385c.222 0 .368-.037.477-.11a.458.458 0 00.149-.33.55.55 0 00-.149-.366c-.073-.076-.219-.113-.44-.113-1.137-.036-2.569.037-2.569-1.577 0-.733.441-1.54 1.763-1.54h2.458v1.1H36.66c-.219 0-.367 0-.477.072-.146.11-.183.223-.183.404 0 .184.11.295.255.368.149.037.294.073.478.073h.662c.696 0 1.136.146 1.431.405.22.255.365.586.365 1.1.001 1.1-.695 1.614-1.944 1.614zM0 30a2 2 0 012-2h40a2 2 0 012 2v24a2 2 0 01-2 2H2a2 2 0 01-2-2V30z" fill="#fff"/><path d="M36.023 45.125v-.336h-.087l-.101.23-.101-.23h-.088v.336h.062v-.253l.095.218h.064l.095-.219v.254h.061zm-.555 0v-.279h.112v-.056h-.286v.056h.113v.279h.061z" fill="#0099DF"/><path d="M26.077 46.568h-7.571V32.962h7.57v13.606z" fill="#6C6BBD"/><path d="M18.99 39.764a8.639 8.639 0 013.306-6.803 8.652 8.652 0 00-14 6.803 8.653 8.653 0 0014 6.803 8.638 8.638 0 01-3.305-6.803z" fill="#EB001B"/><path d="M36.287 39.764a8.653 8.653 0 01-14 6.803 8.637 8.637 0 003.306-6.803 8.638 8.638 0 00-3.306-6.803 8.653 8.653 0 0114 6.803z" fill="#0099DF"/><path d="M28.63 50.41c.1 0 .245.02.355.063l-.154.471a.809.809 0 00-.312-.058c-.327 0-.49.212-.49.591v1.289h-.5v-2.298h.495v.28a.678.678 0 01.605-.338zm-1.848.515h-.817v1.038c0 .23.081.384.332.384a.91.91 0 00.441-.13l.145.428c-.159.11-.409.178-.625.178-.591 0-.797-.317-.797-.85v-1.048h-.467v-.457h.466v-.697h.505v.697h.817v.457zm-6.398.49c.054-.332.255-.558.611-.558.322 0 .529.202.581.558h-1.192zm1.712.202c-.005-.716-.447-1.207-1.092-1.207-.672 0-1.143.49-1.143 1.207 0 .73.49 1.206 1.177 1.206.346 0 .663-.087.942-.322l-.245-.37c-.192.154-.437.24-.668.24-.322 0-.615-.149-.687-.562h1.706c.005-.063.01-.125.01-.192zm2.196-.562a1.473 1.473 0 00-.716-.198c-.274 0-.437.101-.437.27 0 .153.173.197.389.225l.235.034c.5.072.803.284.803.688 0 .437-.384.75-1.047.75-.376 0-.722-.097-.996-.299l.236-.39c.168.13.418.241.764.241.342 0 .524-.1.524-.279 0-.13-.13-.202-.404-.24l-.235-.033c-.514-.073-.793-.303-.793-.678 0-.457.375-.736.956-.736.366 0 .697.082.937.24l-.216.405zm6.164-.17a.759.759 0 00-.286.054.689.689 0 00-.381.386.79.79 0 00-.055.3c0 .11.018.209.055.3a.687.687 0 00.38.386.747.747 0 00.287.053.745.745 0 00.287-.054.686.686 0 00.383-.386.787.787 0 00.055-.3.79.79 0 00-.055-.3.698.698 0 00-.67-.439zm0-.475c.179 0 .344.031.495.093a1.169 1.169 0 01.654.64c.063.148.095.308.095.482 0 .173-.032.334-.094.481a1.171 1.171 0 01-.655.64 1.302 1.302 0 01-.495.093c-.178 0-.343-.031-.495-.093a1.185 1.185 0 01-.745-1.122 1.183 1.183 0 01.745-1.121c.152-.062.317-.093.495-.093zm-12.992 1.207c0-.404.265-.736.697-.736.413 0 .692.318.692.736s-.279.735-.692.735c-.432 0-.697-.331-.697-.735zm1.86 0v-1.149h-.5v.28c-.158-.208-.398-.338-.725-.338-.644 0-1.149.505-1.149 1.207 0 .701.505 1.206 1.15 1.206.326 0 .566-.13.725-.336v.279h.5v-1.15zm-2.816 1.149v-1.442c0-.543-.346-.909-.903-.914-.293-.004-.597.087-.808.41-.158-.255-.409-.41-.76-.41a.76.76 0 00-.672.342v-.284h-.5v2.298h.505v-1.274c0-.399.22-.61.562-.61.332 0 .5.216.5.605v1.279h.504v-1.274c0-.399.231-.61.563-.61.341 0 .505.216.505.605v1.279h.504zm15.73-.173v.057h.053a.051.051 0 00.028-.007c.007-.004.01-.012.01-.022a.023.023 0 00-.01-.02.047.047 0 00-.029-.008h-.052zm.053-.04c.027 0 .048.007.063.019a.06.06 0 01.022.05.057.057 0 01-.018.043.088.088 0 01-.05.02l.07.08h-.054l-.065-.079h-.02v.08h-.046v-.212h.098zm-.014.285a.18.18 0 00.177-.178.18.18 0 00-.052-.125.168.168 0 00-.056-.038.166.166 0 00-.069-.014.173.173 0 00-.07.014.168.168 0 00-.094.094.17.17 0 00-.014.07.17.17 0 00.014.069.167.167 0 00.094.095.182.182 0 00.07.013zm0-.406c.033 0 .062.006.09.018a.228.228 0 01.124.3.227.227 0 01-.123.12.232.232 0 01-.324-.21.224.224 0 01.142-.21.232.232 0 01.091-.018" fill="#231F20"/><path d="M0 58a2 2 0 012-2h40a2 2 0 012 2v24a2 2 0 01-2 2H2a2 2 0 01-2-2V58z" fill="#fff"/><path d="M13.403 80.84v-1.445c0-.554-.337-.915-.915-.915-.29 0-.602.096-.82.41-.168-.266-.409-.41-.77-.41a.778.778 0 00-.675.337v-.289h-.505v2.313h.505v-1.277c0-.41.217-.602.554-.602.338 0 .506.216.506.602v1.277h.506v-1.277c0-.41.241-.602.554-.602.338 0 .506.216.506.602v1.277h.554zm7.492-2.312h-.819v-.699h-.506v.699h-.457v.458h.457v1.06c0 .53.217.843.796.843.216 0 .457-.072.626-.169l-.145-.433a.792.792 0 01-.433.12c-.241 0-.338-.144-.338-.385v-1.036h.82v-.458zm4.289-.048a.68.68 0 00-.603.337v-.289h-.506v2.313h.506V79.54c0-.386.169-.602.482-.602.097 0 .217.024.313.048l.145-.482c-.097-.024-.241-.024-.337-.024zm-6.48.24c-.242-.168-.579-.24-.94-.24-.578 0-.964.289-.964.747 0 .385.29.602.795.674l.241.024c.265.049.41.12.41.241 0 .169-.193.29-.53.29a1.33 1.33 0 01-.771-.242l-.241.386c.265.193.626.289.988.289.674 0 1.06-.313 1.06-.747 0-.41-.314-.626-.796-.698l-.24-.025c-.217-.024-.386-.072-.386-.216 0-.17.169-.265.434-.265.289 0 .578.12.723.192l.216-.41zm13.442-.24a.68.68 0 00-.602.337v-.289h-.506v2.313h.506V79.54c0-.386.168-.602.481-.602.097 0 .217.024.314.048l.144-.482c-.096-.024-.24-.024-.337-.024zm-6.457 1.204c0 .699.482 1.205 1.23 1.205.336 0 .577-.072.818-.265l-.24-.41a.974.974 0 01-.603.217c-.41 0-.699-.289-.699-.747 0-.433.29-.722.699-.746.217 0 .41.072.602.216l.241-.41c-.24-.192-.482-.264-.819-.264-.747 0-1.229.506-1.229 1.204zm4.674 0v-1.156h-.506v.29a.87.87 0 00-.723-.338c-.65 0-1.156.506-1.156 1.204 0 .699.506 1.205 1.156 1.205.338 0 .579-.12.723-.337v.289h.506v-1.157zm-1.855 0c0-.41.265-.746.699-.746.41 0 .698.313.698.746 0 .41-.289.747-.698.747-.434-.024-.699-.337-.699-.747zm-6.047-1.204c-.674 0-1.156.482-1.156 1.204 0 .723.482 1.205 1.18 1.205.338 0 .675-.096.94-.313l-.24-.362a1.152 1.152 0 01-.675.241c-.314 0-.627-.144-.7-.554h1.711v-.192c.024-.747-.41-1.23-1.06-1.23zm0 .433c.314 0 .53.193.579.555h-1.205c.048-.314.265-.555.626-.555zm12.552.771v-2.071h-.506v1.204a.87.87 0 00-.723-.337c-.65 0-1.156.506-1.156 1.204 0 .699.505 1.205 1.156 1.205.337 0 .578-.12.723-.337v.289h.506v-1.157zm-1.855 0c0-.41.264-.746.698-.746.41 0 .699.313.699.746 0 .41-.29.747-.699.747-.434-.024-.699-.337-.699-.747zm-16.912 0v-1.156h-.506v.29a.87.87 0 00-.723-.338c-.65 0-1.156.506-1.156 1.204 0 .699.506 1.205 1.156 1.205.338 0 .579-.12.723-.337v.289h.506v-1.157zm-1.879 0c0-.41.265-.746.699-.746.41 0 .698.313.698.746 0 .41-.289.747-.698.747-.434-.024-.699-.337-.699-.747z" fill="#000"/><path d="M26.123 60.966h-7.588v13.635h7.588V60.966z" fill="#FF5F00"/><path d="M19.017 67.784c0-2.77 1.3-5.228 3.3-6.818a8.62 8.62 0 00-5.348-1.855 8.667 8.667 0 00-8.673 8.673 8.667 8.667 0 008.673 8.672 8.62 8.62 0 005.348-1.855 8.66 8.66 0 01-3.3-6.817z" fill="#EB001B"/><path d="M36.362 67.784a8.667 8.667 0 01-8.673 8.672 8.62 8.62 0 01-5.348-1.855 8.623 8.623 0 003.3-6.817c0-2.77-1.3-5.228-3.3-6.818a8.62 8.62 0 015.348-1.855c4.794 0 8.673 3.903 8.673 8.673z" fill="#F79E1B"/><path d="M0 114a2 2 0 012-2h40a2 2 0 012 2v24a2 2 0 01-2 2H2a2 2 0 01-2-2v-24z" fill="#fff"/><path d="M15.873 132.176l2.098-12.321h3.36l-2.103 12.321h-3.355z" fill="url(#paint0_linear)"/><path d="M31.41 120.158a8.669 8.669 0 00-3.012-.518c-3.317 0-5.655 1.672-5.675 4.067-.018 1.77 1.669 2.758 2.943 3.347 1.307.605 1.747.989 1.741 1.529-.01.826-1.046 1.201-2.012 1.201-1.343 0-2.057-.184-3.16-.645l-.433-.197-.471 2.759c.784.343 2.235.639 3.741.658 3.533 0 5.823-1.653 5.848-4.21.011-1.401-.882-2.469-2.82-3.348-1.176-.572-1.893-.951-1.888-1.528 0-.513.61-1.06 1.925-1.06a6.165 6.165 0 012.512.472l.303.143.458-2.67z" fill="url(#paint1_linear)"/><path d="M40.022 119.867h-2.595c-.804 0-1.406.219-1.76 1.021l-4.986 11.293h3.527s.574-1.518.706-1.852l4.301.006c.1.431.408 1.847.408 1.847h3.118l-2.72-12.315zm-4.141 7.942c.278-.71 1.337-3.444 1.337-3.444-.018.032.276-.714.445-1.177l.227 1.062s.641 2.942.778 3.559h-2.787z" fill="url(#paint2_linear)"/><path d="M13.056 119.864l-3.289 8.403-.352-1.708-.002-.006.003.006-1.177-5.662c-.202-.781-.792-1.013-1.521-1.04H1.3l-.042.256a14.14 14.14 0 013.526 1.35l2.986 10.705 3.554-.006 5.288-12.298h-3.557z" fill="url(#paint3_linear)"/><defs><linearGradient id="paint0_linear" x1="1.518" y1="126" x2="43" y2="126" gradientUnits="userSpaceOnUse"><stop stop-color="#23205F"/><stop offset="1" stop-color="#034CA0"/></linearGradient><linearGradient id="paint1_linear" x1="1.518" y1="126" x2="43" y2="126" gradientUnits="userSpaceOnUse"><stop stop-color="#23205F"/><stop offset="1" stop-color="#034CA0"/></linearGradient><linearGradient id="paint2_linear" x1="1.518" y1="126" x2="43" y2="126" gradientUnits="userSpaceOnUse"><stop stop-color="#23205F"/><stop offset="1" stop-color="#034CA0"/></linearGradient><linearGradient id="paint3_linear" x1="1.518" y1="126" x2="43" y2="126" gradientUnits="userSpaceOnUse"><stop stop-color="#23205F"/><stop offset="1" stop-color="#034CA0"/></linearGradient></defs></svg>