<svg xmlns="http://www.w3.org/2000/svg" width="108" height="32" fill="none" y="32"><path fill-rule="evenodd" clip-rule="evenodd" d="M103.999 32H4.001A4.012 4.012 0 010 28V4c0-2.204 1.796-4 4.001-4H104a4.008 4.008 0 014 4v24c0 2.197-1.798 4-4.001 4z" fill="#000"/><path d="M56.895 10.585c-.722 0-1.33-.253-1.81-.752a2.567 2.567 0 01-.732-1.835c0-.728.247-1.345.732-1.833.478-.5 1.087-.753 1.808-.753.713 0 1.32.254 1.81.753.484.504.73 1.12.73 1.833-.007.73-.254 1.347-.73 1.833-.48.503-1.087.755-1.808.755zm-21.46 0a2.509 2.509 0 01-1.818-.742c-.497-.49-.749-1.11-.749-1.843 0-.732.252-1.353.75-1.843.49-.493 1.102-.743 1.817-.743.35 0 .69.07 1.015.212.32.138.58.325.773.555l.048.057-.538.531-.056-.066c-.304-.363-.711-.54-1.25-.54-.48 0-.9.171-1.246.51-.347.341-.524.788-.524 1.329 0 .54.177.988.524 1.329.346.339.765.51 1.246.51.513 0 .944-.171 1.28-.51.198-.2.322-.48.365-.832h-1.726v-.746h2.467l.01.067c.018.126.036.256.036.376 0 .688-.207 1.244-.616 1.655-.465.487-1.073.734-1.808.734zm28.533-.105h-.761l-2.33-3.745.02.674v3.069h-.762V5.52h.868l.024.038 2.192 3.527-.02-.672V5.52h.769v4.96zm-12.791 0h-.771V6.266h-1.337V5.52h3.443v.746h-1.337v4.214h.002zm-2.736 0h-.77V5.52h.77v4.96zm-4.322 0h-.768V6.266h-1.338V5.52h3.444v.746H44.12v4.214zm-2.592-.008h-2.949V5.52h2.949v.746h-2.178v1.36h1.965v.74H39.35v1.36h2.178v.746zM55.649 9.32c.344.345.76.518 1.246.518.498 0 .906-.17 1.245-.518.338-.34.509-.784.509-1.321 0-.537-.17-.984-.507-1.32a1.7 1.7 0 00-1.245-.52c-.499 0-.906.17-1.244.52-.338.338-.509.783-.509 1.32s.17.984.505 1.32z" fill="#fff"/><path fill-rule="evenodd" clip-rule="evenodd" d="M54.282 17.404c-1.877 0-3.4 1.43-3.4 3.404 0 1.955 1.532 3.403 3.4 3.403 1.878 0 3.4-1.44 3.4-3.403 0-1.973-1.522-3.404-3.4-3.404zm0 5.459c-1.027 0-1.911-.854-1.911-2.063 0-1.227.886-2.063 1.911-2.063 1.027 0 1.911.836 1.911 2.063.002 1.217-.884 2.063-1.91 2.063zm-7.417-5.459c-1.877 0-3.4 1.43-3.4 3.404 0 1.955 1.533 3.403 3.4 3.403 1.878 0 3.4-1.44 3.4-3.403 0-1.973-1.524-3.404-3.4-3.404zm0 5.459c-1.027 0-1.911-.854-1.911-2.063 0-1.227.886-2.063 1.911-2.063 1.027 0 1.912.836 1.912 2.063 0 1.217-.885 2.063-1.912 2.063zm-8.825-4.42v1.441h3.443c-.105.808-.372 1.405-.779 1.814-.505.506-1.283 1.057-2.656 1.057-2.116 0-3.771-1.716-3.771-3.84 0-2.125 1.655-3.84 3.77-3.84 1.143 0 1.976.452 2.594 1.03l1.017-1.02c-.859-.827-2.001-1.46-3.602-1.46-2.903 0-5.339 2.375-5.339 5.282 0 2.914 2.434 5.28 5.339 5.28 1.567 0 2.743-.514 3.673-1.484.948-.951 1.248-2.294 1.248-3.377 0-.338-.026-.64-.08-.898h-4.86c.003-.002.003.016.003.016zm36.098 1.122c-.284-.764-1.142-2.169-2.902-2.169-1.745 0-3.195 1.379-3.195 3.404 0 1.911 1.434 3.403 3.364 3.403 1.55 0 2.451-.951 2.823-1.51l-1.15-.774c-.382.569-.913.942-1.666.942-.76 0-1.293-.347-1.647-1.032l4.532-1.885a72.8 72.8 0 01-.159-.379zm-4.62 1.137c-.037-1.315 1.016-1.983 1.77-1.983.593 0 1.088.293 1.257.72l-3.028 1.263zM65.834 24h1.489v-9.999h-1.489V24zm-2.443-5.84h-.054c-.336-.4-.974-.764-1.788-.764-1.69 0-3.249 1.495-3.249 3.414 0 1.911 1.55 3.388 3.249 3.388.805 0 1.452-.366 1.788-.775h.054v.49c0 1.298-.692 1.998-1.806 1.998-.912 0-1.478-.658-1.709-1.209l-1.293.543c.371.898 1.362 2.009 3 2.009 1.744 0 3.222-1.032 3.222-3.547V17.6H63.4v.56h-.008zm-1.709 4.703c-1.027 0-1.886-.862-1.886-2.053 0-1.201.859-2.07 1.886-2.07 1.017 0 1.806.879 1.806 2.07.01 1.191-.787 2.053-1.806 2.053zM81.106 14h-3.558v10h1.488v-3.787h2.072c1.647 0 3.267-1.199 3.267-3.102 0-1.903-1.614-3.11-3.269-3.11zm.044 4.816h-2.116v-3.431h2.116c1.115 0 1.744.923 1.744 1.715 0 .784-.637 1.716-1.744 1.716zm9.19-1.43c-1.082 0-2.196.48-2.657 1.528l1.319.55c.284-.55.805-.738 1.355-.738.77 0 1.55.463 1.568 1.289v.106a3.323 3.323 0 00-1.55-.383c-1.425 0-2.87.782-2.87 2.248 0 1.343 1.17 2.205 2.47 2.205 1 0 1.55-.453 1.894-.978h.054v.774h1.434v-3.83c0-1.784-1.32-2.771-3.018-2.771zm-.188 5.476c-.487 0-1.168-.24-1.168-.854 0-.774.85-1.067 1.576-1.067.655 0 .965.141 1.355.337a1.794 1.794 0 01-1.763 1.584zM98.59 17.6l-1.708 4.337h-.054l-1.77-4.337h-1.602l2.657 6.063-1.514 3.37h1.55l4.086-9.433H98.59zM85.195 24h1.488v-9.999h-1.488V24z" fill="#fff"/><path fill-rule="evenodd" clip-rule="evenodd" d="M8.313 6.027c-.23.25-.364.63-.364 1.13v17.689c0 .499.133.88.372 1.12l.061.053 9.871-9.911v-.222L8.375 5.973l-.062.054z" fill="url(#g-paint0_linear)"/><path fill-rule="evenodd" clip-rule="evenodd" d="M21.537 19.421l-3.292-3.305v-.232l3.292-3.305.072.043 3.894 2.223c1.114.63 1.114 1.672 0 2.31l-3.894 2.223-.072.043z" fill="url(#g-paint1_linear)"/><path fill-rule="evenodd" clip-rule="evenodd" d="M21.609 19.378L18.245 16l-9.932 9.973c.363.391.973.435 1.655.054l11.64-6.65z" fill="url(#g-paint2_linear)"/><path fill-rule="evenodd" clip-rule="evenodd" d="M21.609 12.622L9.968 5.983c-.682-.391-1.294-.337-1.655.054L18.245 16l3.364-3.378z" fill="url(#g-paint3_linear)"/><path opacity=".2" fill-rule="evenodd" clip-rule="evenodd" d="M21.537 19.306L9.976 25.9c-.646.373-1.222.347-1.594.008l-.061.062.061.054c.372.337.948.365 1.594-.008l11.64-6.64-.079-.071z" fill="#000"/><path opacity=".12" fill-rule="evenodd" clip-rule="evenodd" d="M25.503 17.04l-3.976 2.266.072.072 3.894-2.223c.558-.32.833-.738.833-1.155-.034.383-.318.746-.823 1.04z" fill="#000"/><path opacity=".25" fill-rule="evenodd" clip-rule="evenodd" d="M9.968 6.099l15.535 8.861c.505.286.789.659.832 1.04 0-.417-.274-.836-.832-1.155L9.968 5.983c-1.115-.64-2.019-.106-2.019 1.173v.116c0-1.281.904-1.806 2.019-1.173z" fill="#fff"/><defs><linearGradient id="g-paint0_linear" x1="17.368" y1="6.965" x2="1.548" y2="11.163" gradientUnits="userSpaceOnUse"><stop stop-color="#00A0FF"/><stop offset=".007" stop-color="#00A1FF"/><stop offset=".26" stop-color="#00BEFF"/><stop offset=".512" stop-color="#00D2FF"/><stop offset=".76" stop-color="#00DFFF"/><stop offset="1" stop-color="#00E3FF"/></linearGradient><linearGradient id="g-paint1_linear" x1="26.956" y1="16" x2="7.678" y2="16" gradientUnits="userSpaceOnUse"><stop stop-color="#FFE000"/><stop offset=".409" stop-color="#FFBD00"/><stop offset=".775" stop-color="orange"/><stop offset="1" stop-color="#FF9C00"/></linearGradient><linearGradient id="g-paint2_linear" x1="19.78" y1="17.838" x2="7.009" y2="39.243" gradientUnits="userSpaceOnUse"><stop stop-color="#FF3A44"/><stop offset="1" stop-color="#C31162"/></linearGradient><linearGradient id="g-paint3_linear" x1="5.812" y1=".143" x2="11.509" y2="9.703" gradientUnits="userSpaceOnUse"><stop stop-color="#32A071"/><stop offset=".069" stop-color="#2DA771"/><stop offset=".476" stop-color="#15CF74"/><stop offset=".801" stop-color="#06E775"/><stop offset="1" stop-color="#00F076"/></linearGradient></defs></svg>