<svg xmlns="http://www.w3.org/2000/svg" viewBox="132 -35 96 96" class="mr-24 qr-code">
            <path shape-rendering="optimizeSpeed" fill="#FFF" d="M132-35h96v96h-96z"></path>
            <path shape-rendering="optimizeSpeed" d="M138.2-28.8h2.9v2.9h-2.9zM141.1-28.8h2.9v2.9h-2.9zM144-28.8h2.9v2.9H144zM146.9-28.8h2.9v2.9h-2.9zM149.8-28.8h2.9v2.9h-2.9z"></path>
            <path shape-rendering="optimizeSpeed" d="M152.6-28.8h2.9v2.9h-2.9zM155.5-28.8h2.9v2.9h-2.9zM164.2-28.8h2.9v2.9h-2.9zM175.7-28.8h2.9v2.9h-2.9zM193-28.8h2.9v2.9H193z"></path>
            <path shape-rendering="optimizeSpeed" d="M195.8-28.8h2.9v2.9h-2.9zM201.6-28.8h2.9v2.9h-2.9zM204.5-28.8h2.9v2.9h-2.9zM207.4-28.8h2.9v2.9h-2.9z"></path>
            <path shape-rendering="optimizeSpeed" d="M210.2-28.8h2.9v2.9h-2.9zM213.1-28.8h2.9v2.9h-2.9zM216-28.8h2.9v2.9H216zM218.9-28.8h2.9v2.9h-2.9zM138.2-25.9h2.9v2.9h-2.9zM155.5-25.9h2.9v2.9h-2.9zM161.3-25.9h2.9v2.9h-2.9z"></path>
            <path shape-rendering="optimizeSpeed" d="M164.2-25.9h2.9v2.9h-2.9zM169.9-25.9h2.9v2.9h-2.9zM172.8-25.9h2.9v2.9h-2.9z"></path>
            <path shape-rendering="optimizeSpeed" d="M175.7-25.9h2.9v2.9h-2.9zM178.6-25.9h2.9v2.9h-2.9z"></path>
            <path shape-rendering="optimizeSpeed" d="M181.4-25.9h2.9v2.9h-2.9zM184.3-25.9h2.9v2.9h-2.9z"></path>
            <path shape-rendering="optimizeSpeed" d="M187.2-25.9h2.9v2.9h-2.9zM190.1-25.9h2.9v2.9h-2.9zM195.8-25.9h2.9v2.9h-2.9zM201.6-25.9h2.9v2.9h-2.9zM218.9-25.9h2.9v2.9h-2.9zM138.2-23h2.9v2.9h-2.9zM144-23h2.9v2.9H144zM146.9-23h2.9v2.9h-2.9zM149.8-23h2.9v2.9h-2.9zM155.5-23h2.9v2.9h-2.9zM164.2-23h2.9v2.9h-2.9z"></path>
            <path shape-rendering="optimizeSpeed" d="M167-23h2.9v2.9H167zM169.9-23h2.9v2.9h-2.9zM178.6-23h2.9v2.9h-2.9z"></path>
            <path shape-rendering="optimizeSpeed" d="M181.4-23h2.9v2.9h-2.9zM184.3-23h2.9v2.9h-2.9zM190.1-23h2.9v2.9h-2.9zM201.6-23h2.9v2.9h-2.9zM207.4-23h2.9v2.9h-2.9z"></path>
            <path shape-rendering="optimizeSpeed" d="M210.2-23h2.9v2.9h-2.9zM213.1-23h2.9v2.9h-2.9zM218.9-23h2.9v2.9h-2.9zM138.2-20.1h2.9v2.9h-2.9zM144-20.1h2.9v2.9H144zM146.9-20.1h2.9v2.9h-2.9zM149.8-20.1h2.9v2.9h-2.9zM155.5-20.1h2.9v2.9h-2.9zM161.3-20.1h2.9v2.9h-2.9z"></path>
            <path shape-rendering="optimizeSpeed" d="M164.2-20.1h2.9v2.9h-2.9zM169.9-20.1h2.9v2.9h-2.9zM175.7-20.1h2.9v2.9h-2.9zM178.6-20.1h2.9v2.9h-2.9z"></path>
            <path shape-rendering="optimizeSpeed" d="M181.4-20.1h2.9v2.9h-2.9zM187.2-20.1h2.9v2.9h-2.9zM201.6-20.1h2.9v2.9h-2.9zM207.4-20.1h2.9v2.9h-2.9z"></path>
            <path shape-rendering="optimizeSpeed" d="M210.2-20.1h2.9v2.9h-2.9zM213.1-20.1h2.9v2.9h-2.9zM218.9-20.1h2.9v2.9h-2.9zM138.2-17.2h2.9v2.9h-2.9zM144-17.2h2.9v2.9H144zM146.9-17.2h2.9v2.9h-2.9zM149.8-17.2h2.9v2.9h-2.9zM155.5-17.2h2.9v2.9h-2.9zM167-17.2h2.9v2.9H167zM172.8-17.2h2.9v2.9h-2.9zM184.3-17.2h2.9v2.9h-2.9zM193-17.2h2.9v2.9H193z"></path>
            <path shape-rendering="optimizeSpeed" d="M195.8-17.2h2.9v2.9h-2.9zM201.6-17.2h2.9v2.9h-2.9zM207.4-17.2h2.9v2.9h-2.9z"></path>
            <path shape-rendering="optimizeSpeed" d="M210.2-17.2h2.9v2.9h-2.9zM213.1-17.2h2.9v2.9h-2.9zM218.9-17.2h2.9v2.9h-2.9zM138.2-14.4h2.9v2.9h-2.9zM155.5-14.4h2.9v2.9h-2.9zM161.3-14.4h2.9v2.9h-2.9zM167-14.4h2.9v2.9H167zM178.6-14.4h2.9v2.9h-2.9z"></path>
            <path shape-rendering="optimizeSpeed" d="M181.4-14.4h2.9v2.9h-2.9zM187.2-14.4h2.9v2.9h-2.9zM190.1-14.4h2.9v2.9h-2.9zM195.8-14.4h2.9v2.9h-2.9zM201.6-14.4h2.9v2.9h-2.9zM218.9-14.4h2.9v2.9h-2.9zM138.2-11.5h2.9v2.9h-2.9zM141.1-11.5h2.9v2.9h-2.9zM144-11.5h2.9v2.9H144zM146.9-11.5h2.9v2.9h-2.9zM149.8-11.5h2.9v2.9h-2.9z"></path>
            <path shape-rendering="optimizeSpeed" d="M152.6-11.5h2.9v2.9h-2.9zM155.5-11.5h2.9v2.9h-2.9zM161.3-11.5h2.9v2.9h-2.9zM167-11.5h2.9v2.9H167zM172.8-11.5h2.9v2.9h-2.9zM178.6-11.5h2.9v2.9h-2.9zM184.3-11.5h2.9v2.9h-2.9zM190.1-11.5h2.9v2.9h-2.9zM195.8-11.5h2.9v2.9h-2.9zM201.6-11.5h2.9v2.9h-2.9zM204.5-11.5h2.9v2.9h-2.9zM207.4-11.5h2.9v2.9h-2.9z"></path>
            <path shape-rendering="optimizeSpeed" d="M210.2-11.5h2.9v2.9h-2.9zM213.1-11.5h2.9v2.9h-2.9zM216-11.5h2.9v2.9H216zM218.9-11.5h2.9v2.9h-2.9zM172.8-8.6h2.9v2.9h-2.9zM181.4-8.6h2.9v2.9h-2.9zM184.3-8.6h2.9v2.9h-2.9zM193-8.6h2.9v2.9H193zM138.2-5.7h2.9v2.9h-2.9zM141.1-5.7h2.9v2.9h-2.9zM144-5.7h2.9v2.9H144zM146.9-5.7h2.9v2.9h-2.9zM149.8-5.7h2.9v2.9h-2.9zM155.5-5.7h2.9v2.9h-2.9zM158.4-5.7h2.9v2.9h-2.9zM161.3-5.7h2.9v2.9h-2.9z"></path>
            <path shape-rendering="optimizeSpeed" d="M164.2-5.7h2.9v2.9h-2.9z"></path>
            <path shape-rendering="optimizeSpeed" d="M167-5.7h2.9v2.9H167zM172.8-5.7h2.9v2.9h-2.9z"></path>
            <path shape-rendering="optimizeSpeed" d="M175.7-5.7h2.9v2.9h-2.9zM178.6-5.7h2.9v2.9h-2.9z"></path>
            <path shape-rendering="optimizeSpeed" d="M181.4-5.7h2.9v2.9h-2.9zM187.2-5.7h2.9v2.9h-2.9zM190.1-5.7h2.9v2.9h-2.9zM198.7-5.7h2.9v2.9h-2.9zM204.5-5.7h2.9v2.9h-2.9zM210.2-5.7h2.9v2.9h-2.9zM216-5.7h2.9v2.9H216zM141.1-2.8h2.9V.1h-2.9zM149.8-2.8h2.9V.1h-2.9zM161.3-2.8h2.9V.1h-2.9z"></path>
            <path shape-rendering="optimizeSpeed" d="M164.2-2.8h2.9V.1h-2.9zM175.7-2.8h2.9V.1h-2.9zM184.3-2.8h2.9V.1h-2.9z"></path>
            <path shape-rendering="optimizeSpeed" d="M187.2-2.8h2.9V.1h-2.9zM190.1-2.8h2.9V.1h-2.9zM193-2.8h2.9V.1H193z"></path>
            <path shape-rendering="optimizeSpeed" d="M195.8-2.8h2.9V.1h-2.9z"></path>
            <path shape-rendering="optimizeSpeed" d="M198.7-2.8h2.9V.1h-2.9zM201.6-2.8h2.9V.1h-2.9zM204.5-2.8h2.9V.1h-2.9zM207.4-2.8h2.9V.1h-2.9zM218.9-2.8h2.9V.1h-2.9zM141.1 0h2.9v2.9h-2.9zM146.9 0h2.9v2.9h-2.9zM155.5 0h2.9v2.9h-2.9zM158.4 0h2.9v2.9h-2.9zM161.3 0h2.9v2.9h-2.9z"></path>
            <path shape-rendering="optimizeSpeed" d="M164.2 0h2.9v2.9h-2.9zM169.9 0h2.9v2.9h-2.9zM172.8 0h2.9v2.9h-2.9z"></path>
            <path shape-rendering="optimizeSpeed" d="M175.7 0h2.9v2.9h-2.9zM178.6 0h2.9v2.9h-2.9z"></path>
            <path shape-rendering="optimizeSpeed" d="M181.4 0h2.9v2.9h-2.9zM184.3 0h2.9v2.9h-2.9z"></path>
            <path shape-rendering="optimizeSpeed" d="M187.2 0h2.9v2.9h-2.9zM144 2.9h2.9v2.9H144zM158.4 2.9h2.9v2.9h-2.9zM164.2 2.9h2.9v2.9h-2.9z"></path>
            <path shape-rendering="optimizeSpeed" d="M167 2.9h2.9v2.9H167zM169.9 2.9h2.9v2.9h-2.9zM178.6 2.9h2.9v2.9h-2.9zM184.3 2.9h2.9v2.9h-2.9zM190.1 2.9h2.9v2.9h-2.9zM193 2.9h2.9v2.9H193zM198.7 2.9h2.9v2.9h-2.9zM204.5 2.9h2.9v2.9h-2.9zM210.2 2.9h2.9v2.9h-2.9zM216 2.9h2.9v2.9H216zM138.2 5.8h2.9v2.9h-2.9zM144 5.8h2.9v2.9H144zM146.9 5.8h2.9v2.9h-2.9zM152.6 5.8h2.9v2.9h-2.9zM155.5 5.8h2.9v2.9h-2.9zM164.2 5.8h2.9v2.9h-2.9zM169.9 5.8h2.9v2.9h-2.9zM175.7 5.8h2.9v2.9h-2.9zM178.6 5.8h2.9v2.9h-2.9zM187.2 5.8h2.9v2.9h-2.9zM195.8 5.8h2.9v2.9h-2.9zM210.2 5.8h2.9v2.9h-2.9zM213.1 5.8h2.9v2.9h-2.9zM138.2 8.7h2.9v2.9h-2.9zM141.1 8.7h2.9v2.9h-2.9zM144 8.7h2.9v2.9H144zM146.9 8.7h2.9v2.9h-2.9zM161.3 8.7h2.9v2.9h-2.9z"></path>
            <path shape-rendering="optimizeSpeed" d="M164.2 8.7h2.9v2.9h-2.9z"></path>
            <path shape-rendering="optimizeSpeed" d="M167 8.7h2.9v2.9H167zM172.8 8.7h2.9v2.9h-2.9zM178.6 8.7h2.9v2.9h-2.9zM184.3 8.7h2.9v2.9h-2.9zM190.1 8.7h2.9v2.9h-2.9zM193 8.7h2.9v2.9H193z"></path>
            <path shape-rendering="optimizeSpeed" d="M195.8 8.7h2.9v2.9h-2.9z"></path>
            <path shape-rendering="optimizeSpeed" d="M198.7 8.7h2.9v2.9h-2.9zM201.6 8.7h2.9v2.9h-2.9zM207.4 8.7h2.9v2.9h-2.9zM218.9 8.7h2.9v2.9h-2.9zM141.1 11.6h2.9v2.9h-2.9zM146.9 11.6h2.9v2.9h-2.9zM149.8 11.6h2.9v2.9h-2.9z"></path>
            <path shape-rendering="optimizeSpeed" d="M152.6 11.6h2.9v2.9h-2.9zM155.5 11.6h2.9v2.9h-2.9zM158.4 11.6h2.9v2.9h-2.9zM164.2 11.6h2.9v2.9h-2.9z"></path>
            <path shape-rendering="optimizeSpeed" d="M167 11.6h2.9v2.9H167zM175.7 11.6h2.9v2.9h-2.9zM178.6 11.6h2.9v2.9h-2.9z"></path>
            <path shape-rendering="optimizeSpeed" d="M181.4 11.6h2.9v2.9h-2.9zM184.3 11.6h2.9v2.9h-2.9z"></path>
            <path shape-rendering="optimizeSpeed" d="M187.2 11.6h2.9v2.9h-2.9zM190.1 11.6h2.9v2.9h-2.9zM195.8 11.6h2.9v2.9h-2.9z"></path>
            <path shape-rendering="optimizeSpeed" d="M198.7 11.6h2.9v2.9h-2.9zM201.6 11.6h2.9v2.9h-2.9zM204.5 11.6h2.9v2.9h-2.9zM210.2 11.6h2.9v2.9h-2.9zM213.1 11.6h2.9v2.9h-2.9zM138.2 14.4h2.9v2.9h-2.9zM141.1 14.4h2.9v2.9h-2.9zM161.3 14.4h2.9v2.9h-2.9z"></path>
            <path shape-rendering="optimizeSpeed" d="M164.2 14.4h2.9v2.9h-2.9z"></path>
            <path shape-rendering="optimizeSpeed" d="M167 14.4h2.9v2.9H167zM172.8 14.4h2.9v2.9h-2.9zM178.6 14.4h2.9v2.9h-2.9zM195.8 14.4h2.9v2.9h-2.9zM204.5 14.4h2.9v2.9h-2.9zM207.4 14.4h2.9v2.9h-2.9zM216 14.4h2.9v2.9H216zM138.2 17.3h2.9v2.9h-2.9zM141.1 17.3h2.9v2.9h-2.9zM155.5 17.3h2.9v2.9h-2.9zM158.4 17.3h2.9v2.9h-2.9zM167 17.3h2.9v2.9H167zM172.8 17.3h2.9v2.9h-2.9z"></path>
            <path shape-rendering="optimizeSpeed" d="M175.7 17.3h2.9v2.9h-2.9zM178.6 17.3h2.9v2.9h-2.9z"></path>
            <path shape-rendering="optimizeSpeed" d="M181.4 17.3h2.9v2.9h-2.9zM187.2 17.3h2.9v2.9h-2.9zM204.5 17.3h2.9v2.9h-2.9zM210.2 17.3h2.9v2.9h-2.9zM213.1 17.3h2.9v2.9h-2.9zM138.2 20.2h2.9v2.9h-2.9zM141.1 20.2h2.9v2.9h-2.9zM144 20.2h2.9v2.9H144zM149.8 20.2h2.9v2.9h-2.9zM161.3 20.2h2.9v2.9h-2.9zM167 20.2h2.9v2.9H167zM175.7 20.2h2.9v2.9h-2.9zM184.3 20.2h2.9v2.9h-2.9z"></path>
            <path shape-rendering="optimizeSpeed" d="M187.2 20.2h2.9v2.9h-2.9zM190.1 20.2h2.9v2.9h-2.9zM193 20.2h2.9v2.9H193z"></path>
            <path shape-rendering="optimizeSpeed" d="M195.8 20.2h2.9v2.9h-2.9zM201.6 20.2h2.9v2.9h-2.9zM204.5 20.2h2.9v2.9h-2.9zM207.4 20.2h2.9v2.9h-2.9zM213.1 20.2h2.9v2.9h-2.9zM218.9 20.2h2.9v2.9h-2.9zM138.2 23.1h2.9V26h-2.9zM155.5 23.1h2.9V26h-2.9zM164.2 23.1h2.9V26h-2.9z"></path>
            <path shape-rendering="optimizeSpeed" d="M167 23.1h2.9V26H167zM169.9 23.1h2.9V26h-2.9zM172.8 23.1h2.9V26h-2.9z"></path>
            <path shape-rendering="optimizeSpeed" d="M175.7 23.1h2.9V26h-2.9zM178.6 23.1h2.9V26h-2.9z"></path>
            <path shape-rendering="optimizeSpeed" d="M181.4 23.1h2.9V26h-2.9zM184.3 23.1h2.9V26h-2.9z"></path>
            <path shape-rendering="optimizeSpeed" d="M187.2 23.1h2.9V26h-2.9zM198.7 23.1h2.9V26h-2.9zM204.5 23.1h2.9V26h-2.9zM213.1 23.1h2.9V26h-2.9zM138.2 26h2.9v2.9h-2.9zM146.9 26h2.9v2.9h-2.9zM149.8 26h2.9v2.9h-2.9z"></path>
            <path shape-rendering="optimizeSpeed" d="M152.6 26h2.9v2.9h-2.9zM167 26h2.9v2.9H167zM169.9 26h2.9v2.9h-2.9zM181.4 26h2.9v2.9h-2.9zM184.3 26h2.9v2.9h-2.9zM193 26h2.9v2.9H193z"></path>
            <path shape-rendering="optimizeSpeed" d="M195.8 26h2.9v2.9h-2.9zM201.6 26h2.9v2.9h-2.9zM204.5 26h2.9v2.9h-2.9zM207.4 26h2.9v2.9h-2.9zM216 26h2.9v2.9H216zM138.2 28.8h2.9v2.9h-2.9zM144 28.8h2.9v2.9H144zM152.6 28.8h2.9v2.9h-2.9zM155.5 28.8h2.9v2.9h-2.9zM161.3 28.8h2.9v2.9h-2.9zM169.9 28.8h2.9v2.9h-2.9zM172.8 28.8h2.9v2.9h-2.9z"></path>
            <path shape-rendering="optimizeSpeed" d="M175.7 28.8h2.9v2.9h-2.9zM178.6 28.8h2.9v2.9h-2.9zM187.2 28.8h2.9v2.9h-2.9zM195.8 28.8h2.9v2.9h-2.9z"></path>
            <path shape-rendering="optimizeSpeed" d="M198.7 28.8h2.9v2.9h-2.9zM201.6 28.8h2.9v2.9h-2.9zM204.5 28.8h2.9v2.9h-2.9zM207.4 28.8h2.9v2.9h-2.9zM213.1 28.8h2.9v2.9h-2.9zM216 28.8h2.9v2.9H216zM218.9 28.8h2.9v2.9h-2.9zM161.3 31.7h2.9v2.9h-2.9z"></path>
            <path shape-rendering="optimizeSpeed" d="M164.2 31.7h2.9v2.9h-2.9zM172.8 31.7h2.9v2.9h-2.9z"></path>
            <path shape-rendering="optimizeSpeed" d="M175.7 31.7h2.9v2.9h-2.9zM187.2 31.7h2.9v2.9h-2.9zM190.1 31.7h2.9v2.9h-2.9zM193 31.7h2.9v2.9H193z"></path>
            <path shape-rendering="optimizeSpeed" d="M195.8 31.7h2.9v2.9h-2.9zM207.4 31.7h2.9v2.9h-2.9z"></path>
            <path shape-rendering="optimizeSpeed" d="M210.2 31.7h2.9v2.9h-2.9zM213.1 31.7h2.9v2.9h-2.9zM216 31.7h2.9v2.9H216zM218.9 31.7h2.9v2.9h-2.9zM138.2 34.6h2.9v2.9h-2.9zM141.1 34.6h2.9v2.9h-2.9zM144 34.6h2.9v2.9H144zM146.9 34.6h2.9v2.9h-2.9zM149.8 34.6h2.9v2.9h-2.9z"></path>
            <path shape-rendering="optimizeSpeed" d="M152.6 34.6h2.9v2.9h-2.9zM155.5 34.6h2.9v2.9h-2.9zM161.3 34.6h2.9v2.9h-2.9z"></path>
            <path shape-rendering="optimizeSpeed" d="M164.2 34.6h2.9v2.9h-2.9z"></path>
            <path shape-rendering="optimizeSpeed" d="M167 34.6h2.9v2.9H167zM172.8 34.6h2.9v2.9h-2.9zM178.6 34.6h2.9v2.9h-2.9z"></path>
            <path shape-rendering="optimizeSpeed" d="M181.4 34.6h2.9v2.9h-2.9zM193 34.6h2.9v2.9H193z"></path>
            <path shape-rendering="optimizeSpeed" d="M195.8 34.6h2.9v2.9h-2.9zM201.6 34.6h2.9v2.9h-2.9zM207.4 34.6h2.9v2.9h-2.9z"></path>
            <path shape-rendering="optimizeSpeed" d="M210.2 34.6h2.9v2.9h-2.9zM213.1 34.6h2.9v2.9h-2.9zM138.2 37.5h2.9v2.9h-2.9zM155.5 37.5h2.9v2.9h-2.9zM167 37.5h2.9v2.9H167zM193 37.5h2.9v2.9H193z"></path>
            <path shape-rendering="optimizeSpeed" d="M195.8 37.5h2.9v2.9h-2.9zM207.4 37.5h2.9v2.9h-2.9zM138.2 40.4h2.9v2.9h-2.9zM144 40.4h2.9v2.9H144zM146.9 40.4h2.9v2.9h-2.9zM149.8 40.4h2.9v2.9h-2.9zM155.5 40.4h2.9v2.9h-2.9zM161.3 40.4h2.9v2.9h-2.9zM172.8 40.4h2.9v2.9h-2.9z"></path>
            <path shape-rendering="optimizeSpeed" d="M175.7 40.4h2.9v2.9h-2.9zM178.6 40.4h2.9v2.9h-2.9z"></path>
            <path shape-rendering="optimizeSpeed" d="M181.4 40.4h2.9v2.9h-2.9zM184.3 40.4h2.9v2.9h-2.9z"></path>
            <path shape-rendering="optimizeSpeed" d="M187.2 40.4h2.9v2.9h-2.9zM190.1 40.4h2.9v2.9h-2.9zM195.8 40.4h2.9v2.9h-2.9z"></path>
            <path shape-rendering="optimizeSpeed" d="M198.7 40.4h2.9v2.9h-2.9zM201.6 40.4h2.9v2.9h-2.9zM204.5 40.4h2.9v2.9h-2.9zM207.4 40.4h2.9v2.9h-2.9zM213.1 40.4h2.9v2.9h-2.9zM218.9 40.4h2.9v2.9h-2.9zM138.2 43.2h2.9v2.9h-2.9zM144 43.2h2.9v2.9H144zM146.9 43.2h2.9v2.9h-2.9zM149.8 43.2h2.9v2.9h-2.9zM155.5 43.2h2.9v2.9h-2.9zM161.3 43.2h2.9v2.9h-2.9z"></path>
            <path shape-rendering="optimizeSpeed" d="M164.2 43.2h2.9v2.9h-2.9z"></path>
            <path shape-rendering="optimizeSpeed" d="M167 43.2h2.9v2.9H167zM169.9 43.2h2.9v2.9h-2.9zM175.7 43.2h2.9v2.9h-2.9zM184.3 43.2h2.9v2.9h-2.9z"></path>
            <path shape-rendering="optimizeSpeed" d="M187.2 43.2h2.9v2.9h-2.9zM190.1 43.2h2.9v2.9h-2.9zM193 43.2h2.9v2.9H193z"></path>
            <path shape-rendering="optimizeSpeed" d="M195.8 43.2h2.9v2.9h-2.9zM204.5 43.2h2.9v2.9h-2.9zM210.2 43.2h2.9v2.9h-2.9zM213.1 43.2h2.9v2.9h-2.9zM216 43.2h2.9v2.9H216zM218.9 43.2h2.9v2.9h-2.9zM138.2 46.1h2.9V49h-2.9zM144 46.1h2.9V49H144zM146.9 46.1h2.9V49h-2.9zM149.8 46.1h2.9V49h-2.9zM155.5 46.1h2.9V49h-2.9zM161.3 46.1h2.9V49h-2.9zM167 46.1h2.9V49H167zM175.7 46.1h2.9V49h-2.9zM178.6 46.1h2.9V49h-2.9z"></path>
            <path shape-rendering="optimizeSpeed" d="M181.4 46.1h2.9V49h-2.9zM184.3 46.1h2.9V49h-2.9z"></path>
            <path shape-rendering="optimizeSpeed" d="M187.2 46.1h2.9V49h-2.9zM193 46.1h2.9V49H193z"></path>
            <path shape-rendering="optimizeSpeed" d="M195.8 46.1h2.9V49h-2.9z"></path>
            <path shape-rendering="optimizeSpeed" d="M198.7 46.1h2.9V49h-2.9zM201.6 46.1h2.9V49h-2.9zM204.5 46.1h2.9V49h-2.9zM207.4 46.1h2.9V49h-2.9z"></path>
            <path shape-rendering="optimizeSpeed" d="M210.2 46.1h2.9V49h-2.9zM213.1 46.1h2.9V49h-2.9zM216 46.1h2.9V49H216zM138.2 49h2.9v2.9h-2.9zM155.5 49h2.9v2.9h-2.9zM161.3 49h2.9v2.9h-2.9z"></path>
            <path shape-rendering="optimizeSpeed" d="M164.2 49h2.9v2.9h-2.9zM172.8 49h2.9v2.9h-2.9zM178.6 49h2.9v2.9h-2.9z"></path>
            <path shape-rendering="optimizeSpeed" d="M181.4 49h2.9v2.9h-2.9zM195.8 49h2.9v2.9h-2.9z"></path>
            <path shape-rendering="optimizeSpeed" d="M198.7 49h2.9v2.9h-2.9zM204.5 49h2.9v2.9h-2.9zM210.2 49h2.9v2.9h-2.9zM216 49h2.9v2.9H216zM138.2 51.9h2.9v2.9h-2.9zM141.1 51.9h2.9v2.9h-2.9zM144 51.9h2.9v2.9H144zM146.9 51.9h2.9v2.9h-2.9zM149.8 51.9h2.9v2.9h-2.9z"></path>
            <path shape-rendering="optimizeSpeed" d="M152.6 51.9h2.9v2.9h-2.9zM155.5 51.9h2.9v2.9h-2.9zM161.3 51.9h2.9v2.9h-2.9zM172.8 51.9h2.9v2.9h-2.9z"></path>
            <path shape-rendering="optimizeSpeed" d="M175.7 51.9h2.9v2.9h-2.9zM178.6 51.9h2.9v2.9h-2.9z"></path>
            <path shape-rendering="optimizeSpeed" d="M181.4 51.9h2.9v2.9h-2.9zM184.3 51.9h2.9v2.9h-2.9z"></path>
            <path shape-rendering="optimizeSpeed" d="M187.2 51.9h2.9v2.9h-2.9zM193 51.9h2.9v2.9H193zM201.6 51.9h2.9v2.9h-2.9zM204.5 51.9h2.9v2.9h-2.9zM207.4 51.9h2.9v2.9h-2.9z"></path>
            <path shape-rendering="optimizeSpeed" d="M210.2 51.9h2.9v2.9h-2.9zM213.1 51.9h2.9v2.9h-2.9z"></path>
        </svg>