<?xml version="1.0" encoding="UTF-8"?>
<svg id="Layer_1" data-name="Layer 1" xmlns="http://www.w3.org/2000/svg" viewBox="0 0 478.31 478.31">
  <path d="m239.15,0C107.62,0,0,107.62,0,239.15s107.62,239.15,239.15,239.15,239.15-107.62,239.15-239.15S370.69,0,239.15,0Zm0,425.99c-103.14,0-186.84-83.7-186.84-186.84S136.02,52.31,239.15,52.31s186.84,83.7,186.84,186.84-83.7,186.84-186.84,186.84Z"/>
  <path d="m260.08,239.15v-100.15c0-10.46-8.97-20.93-20.93-20.93-10.46,0-20.93,8.97-20.93,20.93v107.62c0,5.98,1.49,10.46,5.98,14.95l74.74,74.74c7.47,7.47,20.93,7.47,28.4,0,7.47-7.47,7.47-20.93,0-28.4l-67.26-68.76Z"/>
</svg>