<svg xmlns="http://www.w3.org/2000/svg" width="28" height="28" y="84"><path d="M26.6 6.093a10.28 10.28 0 01-2.97.814 5.18 5.18 0 002.274-2.86 10.349 10.349 0 01-3.283 1.255 5.17 5.17 0 00-8.81 4.715A14.68 14.68 0 013.154 4.615a5.144 5.144 0 00-.7 2.6c0 1.793.913 3.376 2.3 4.303a5.154 5.154 0 01-2.341-.647v.065a5.174 5.174 0 004.147 5.07 5.2 5.2 0 01-2.335.088 5.176 5.176 0 004.83 3.59 10.372 10.372 0 01-6.422 2.214c-.417 0-.828-.025-1.233-.073a14.63 14.63 0 007.925 2.323c9.51 0 14.71-7.878 14.71-14.71a16.6 16.6 0 00-.014-.67A10.47 10.47 0 0026.6 6.093z" fill="#fff"/></svg>