<svg xmlns="http://www.w3.org/2000/svg" width="28" height="28" y="112"><path fill-rule="evenodd" d="M25.347 5.78c.755.815 1 2.67 1 2.67s.253 2.175.253 4.35v2.04c0 2.175-.252 4.35-.252 4.35s-.247 1.853-1 2.667c-.865.965-1.822 1.065-2.363 1.12a6.92 6.92 0 00-.162.018l-8.822.28-8.568-.27a4.321 4.321 0 00-.342-.05c-.64-.083-1.64-.212-2.437-1.1-.755-.814-1-2.667-1-2.667s-.252-2.174-.252-4.35v-2.04c0-2.174.252-4.35.252-4.35s.247-1.853 1-2.67c.868-.968 1.83-1.065 2.37-1.12l.156-.017 8.827-.273 8.817.273.156.017c.54.055 1.5.152 2.37 1.12zm-6.617 8.042l-7.877 4.727V9.096l7.877 4.726z" fill="#fff"/></svg>